<svg width="1556" height="240" viewBox="0 0 1556 240" fill="none" xmlns="http://www.w3.org/2000/svg">
<path d="M780.501 130.857C780.501 113.596 782.999 98.3031 787.996 84.9789C792.992 71.579 800.866 61.0181 811.616 53.2961C822.442 45.4984 836.183 41.5995 852.838 41.5995C858.743 41.5995 865.14 41.9781 872.029 42.7351C878.918 43.4165 885.656 44.5142 892.243 46.0283C896.331 48.4509 899.889 50.987 902.917 53.6367C906.021 56.2107 908.974 59.3525 911.775 63.0621C911.775 68.4372 911.055 75.5535 909.617 84.4111C908.179 93.2687 906.362 101.521 904.166 109.167C902.046 116.813 900.002 121.772 898.034 124.043C896.066 125.027 894.4 125.709 893.037 126.087C891.675 126.39 889.555 126.541 886.678 126.541C883.12 126.541 879.789 126.276 876.685 125.746C873.581 125.216 871.234 124.497 869.644 123.589L865.67 85.3196C860.295 83.8055 851.702 83.0484 839.892 83.0484C837.318 83.0484 835.425 83.0863 834.214 83.162C830.959 93.6094 829.142 107.653 828.763 125.292V129.721C828.763 141.001 829.483 150.956 830.921 159.587C831.905 165.265 832.738 169.618 833.419 172.646C834.176 175.674 835.085 178.021 836.145 179.687C837.28 181.277 838.681 182.071 840.346 182.071C846.251 182.071 851.513 180.027 856.131 175.939C860.825 171.851 864.837 166.627 868.168 160.268L865.102 144.029C875.02 140.698 884.823 138.995 894.514 138.919C899.208 138.919 903.296 139.449 906.778 140.509C910.261 141.569 912.607 143.651 913.819 146.755C912.38 157.959 910.071 171.7 906.892 187.976C903.712 204.253 901.327 214.133 899.737 217.615C894.892 219.129 890.199 219.886 885.656 219.886C883.309 219.886 880.811 219.697 878.161 219.319C875.587 218.94 873.316 218.372 871.348 217.615C871.348 215.117 871.121 209.174 870.666 199.787L870.326 191.383L867.26 190.475C862.036 199.257 856.169 206.373 849.658 211.824C843.147 217.199 836.069 219.886 828.423 219.886C818.581 219.886 810.064 216.253 802.872 208.985C795.68 201.717 790.153 191.383 786.292 177.983C782.431 164.508 780.501 148.799 780.501 130.857Z" fill="#E7BC20"/>
<path d="M619.476 181.163C620.158 181.39 621.596 181.92 623.792 182.753C626.063 183.51 628.561 184.154 631.286 184.684V77.7114L613.458 71.6928C611.717 67.6047 610.846 62.9109 610.846 57.6115C610.846 53.2963 611.527 49.4353 612.89 46.0286C618.341 44.5902 624.889 43.4924 632.536 42.7354C640.258 41.9026 647.715 41.4862 654.907 41.4862C665.581 41.4862 675.006 42.2811 683.183 43.871C686.968 51.2144 692.57 65.0307 699.989 85.3198C707.484 105.609 716.493 132.219 727.016 165.151L728.947 164.924C726.751 146.225 724.556 124.308 722.36 99.174C720.241 73.964 719.181 56.7031 719.181 47.3913C723.117 45.5743 727.508 44.1738 732.354 43.1896C737.199 42.1297 741.665 41.5998 745.753 41.5998C752.416 41.5998 758.813 42.9625 764.945 45.6879L753.93 189.226C757.866 194.904 760.327 201.566 761.311 209.212C758.207 212.619 753.475 215.269 747.116 217.161C740.833 218.978 734.133 219.887 727.016 219.887C721.49 219.887 716.455 219.319 711.913 218.183C707.446 217.048 703.964 215.306 701.466 212.96C701.541 207.282 702.033 202.096 702.942 197.402C697.264 186.046 691.775 173.555 686.476 159.928C681.252 146.225 674.59 128.056 666.49 105.42L661.493 91.5655L660.812 91.6791C662.401 103.489 664.105 120.901 665.922 143.916C667.739 166.855 668.647 183.624 668.647 194.222C668.647 202.701 666.111 209.099 661.039 213.414C656.042 217.729 648.207 219.887 637.532 219.887C634.201 219.887 630.643 219.243 626.858 217.956C623.072 216.669 619.628 215.042 616.524 213.073C613.496 211.029 611.376 209.061 610.165 207.168C610.165 201.717 610.997 196.531 612.663 191.611C614.328 186.69 616.6 183.207 619.476 181.163Z" fill="#E7BC20"/>
<path d="M550.772 212.051C550.772 208.796 550.621 199.143 550.318 183.093C549.712 159.625 549.409 139.336 549.409 122.226C549.409 105.495 549.712 91.3382 550.318 79.7552L531.808 77.3705C530.672 72.7524 529.915 68.9293 529.537 65.9011C529.158 62.7971 529.007 59.239 529.082 55.2266C530.597 53.3339 533.398 51.3277 537.486 49.208C541.65 47.0125 546.343 45.1956 551.567 43.7572C556.866 42.3187 561.977 41.5995 566.897 41.5995C575.679 41.5995 582.833 43.5679 588.36 47.5046C593.962 51.4413 596.915 57.1192 597.218 64.5384C597.369 68.9293 597.445 72.6767 597.445 75.7807C597.445 90.089 596.839 107.35 595.628 127.563C594.416 147.701 592.789 171.511 590.745 198.992L589.609 215.003C583.628 218.334 576.815 220 569.169 220C562.658 220 556.526 218.827 550.772 216.48V212.051Z" fill="#E7BC20"/>
<path d="M311.959 198.424C311.959 194.941 312.452 191.383 313.436 187.749C314.42 184.04 315.745 180.974 317.41 178.551L328.312 180.595L340.576 74.3044L323.088 71.8061C321.65 68.0208 320.931 64.1598 320.931 60.2231C320.931 56.2107 321.726 52.1226 323.315 47.9588C327.328 46.0662 334.179 44.5521 343.869 43.4165C353.635 42.2052 362.304 41.5995 369.874 41.5995C376.915 41.5995 385.583 41.751 395.879 42.0538L399.854 43.8707C401.519 48.5645 403.79 56.6271 406.667 68.0587C409.62 79.4145 414.616 99.4765 421.657 128.245C422.793 132.711 424.042 137.784 425.404 143.462C429.038 130.289 433.505 111.665 438.804 87.5907L441.643 75.2129H442.211L423.36 72.0332C421.543 67.7937 420.635 63.2514 420.635 58.4062C420.635 55.2266 421.051 51.782 421.884 48.0724C429.228 45.7255 436.874 44.06 444.823 43.0758C452.848 42.0916 461.592 41.5995 471.055 41.5995H474.802C478.815 41.5995 484.531 41.751 491.95 42.0538L495.924 43.8707C500.769 61.4344 505.388 82.7456 509.778 107.804C514.245 132.787 517.614 155.726 519.885 176.621L520.226 179.46C520.302 179.99 520.491 181.806 520.794 184.91C521.096 187.939 521.248 190.853 521.248 193.654C521.248 197.061 520.907 200.43 520.226 203.761C519.09 208.758 517.046 212.884 514.094 216.139C511.141 217.35 508.037 218.259 504.782 218.864C501.602 219.546 497.893 219.886 493.653 219.886C489.489 219.886 485.326 219.394 481.162 218.41C477.074 217.502 474.348 216.139 472.985 214.322L477.074 188.317L470.26 116.889L470.828 78.8467H467.308L461.743 117.797C454.324 145.278 447.548 166.552 441.416 181.617C443.536 185.781 445.353 190.399 446.867 195.471C448.457 200.544 449.441 205.502 449.82 210.348C446.64 213.376 442.287 215.723 436.76 217.388C431.31 219.054 425.518 219.886 419.386 219.886C413.102 219.886 407.349 219.016 402.125 217.275C396.977 215.533 393.23 213.111 390.883 210.007C391.261 202.361 393.154 194.979 396.561 187.863L376.347 114.845L367.944 80.4366L364.083 81.0044L369.647 119.501C369.344 132.901 368.852 146.528 368.171 160.382C367.49 174.236 366.733 185.213 365.9 193.314H366.013C365.408 198.083 363.78 202.323 361.13 206.032C358.556 209.666 355.263 212.505 351.251 214.549C347.314 216.593 343.037 217.615 338.419 217.615C326.306 217.615 317.562 212.392 312.187 201.944C312.035 200.43 311.959 199.257 311.959 198.424Z" fill="#E7BC20"/>
<path d="M159.791 131.765C159.791 71.6547 183.411 41.5995 230.652 41.5995C249.351 41.5995 263.924 45.4984 274.372 53.2961C284.895 61.0181 292.125 71.4654 296.061 84.6382C300.074 97.7353 302.08 113.444 302.08 131.765C302.08 158.716 296.553 180.141 285.5 196.039C274.447 211.937 256.164 219.886 230.652 219.886C204.987 219.886 186.742 212.013 175.916 196.266C165.166 180.519 159.791 159.019 159.791 131.765ZM236.329 183.661C242.537 183.661 246.096 183.321 247.004 182.639C248.897 179.308 250.335 173.517 251.319 165.265C252.303 156.937 252.795 147.625 252.795 137.329C252.795 126.503 252.266 116.472 251.206 107.236C250.221 97.9246 248.821 91.4139 247.004 87.7043C245.111 86.1902 242.31 85.0546 238.601 84.2976C234.891 83.5405 230.803 83.1241 226.336 83.0484C223.762 83.0484 221.415 83.1998 219.296 83.5026C217.252 83.7298 215.775 84.1083 214.867 84.6382C212.671 88.4235 211.044 93.9122 209.984 101.104C209 108.221 208.508 116.359 208.508 125.519C208.508 135.891 209.075 146.225 210.211 156.521C211.347 166.817 212.747 174.69 214.413 180.141C215.473 181.277 218.16 182.147 222.475 182.753C226.791 183.358 231.409 183.661 236.329 183.661Z" fill="#E7BC20"/>
<path d="M20 130.856C20 113.671 22.5361 98.3786 27.6084 84.9787C32.7564 71.5031 40.7812 60.8665 51.6828 53.0688C62.5845 45.2711 76.3629 41.3722 93.0181 41.3722C104.374 41.3722 116.373 42.8485 129.016 45.801C133.104 48.2236 136.662 50.7597 139.691 53.4094C142.795 55.9834 145.747 59.1252 148.548 62.8348C148.548 68.2099 147.829 75.3641 146.391 84.2974C144.952 93.1549 143.135 101.445 140.94 109.167C138.82 116.813 136.776 121.772 134.808 124.043C132.839 125.027 131.174 125.708 129.811 126.087C128.448 126.39 126.329 126.541 123.452 126.541C119.894 126.541 116.563 126.276 113.459 125.746C110.355 125.216 108.008 124.497 106.418 123.589L102.443 85.3194C97.0684 83.8053 89.6114 83.0482 80.0725 83.0482C77.4985 83.0482 75.6058 83.0861 74.3945 83.1618C71.1392 93.6092 69.3223 107.653 68.9437 125.292C68.868 127.412 68.8302 130.629 68.8302 134.944C68.8302 145.089 69.3601 153.303 70.42 159.587C71.4042 165.492 72.464 169.921 73.5996 172.873C74.7352 175.826 76.7036 178.097 79.5047 179.687C82.3815 181.276 86.6589 182.071 92.3368 182.071C99.9831 182.071 107.024 180.974 113.459 178.778C119.969 176.507 127.048 173.214 134.694 168.898C137.571 172.002 139.766 174.539 141.281 176.507C142.87 178.475 144.309 180.898 145.596 183.775C146.958 186.651 147.867 189.945 148.321 193.654C147.11 196.153 143.892 199.484 138.669 203.647C133.445 207.811 126.594 211.559 118.115 214.89C109.636 218.221 100.134 219.886 89.6114 219.886C65.007 219.886 47.254 212.202 36.3524 196.834C25.4508 181.466 20 159.473 20 130.856Z" fill="#E7BC20"/>
<path d="M852.838 25.2268C858.532 25.2268 864.745 25.5918 871.483 26.3323L871.51 26.3352L871.537 26.3381C877.953 26.9727 884.227 27.9796 890.358 29.3557C893.943 31.524 897.024 33.7507 899.625 36.0266L899.675 36.0706L899.726 36.1126C902.126 38.1031 904.47 40.5136 906.749 43.3694C906.619 48.1722 905.948 54.438 904.682 62.2366C903.271 70.9232 901.495 78.9804 899.36 86.4143L899.354 86.4368L899.348 86.4583C898.319 90.1699 897.339 93.1136 896.421 95.342C895.763 96.9392 895.194 98.0138 894.757 98.6995C893.531 99.2713 892.567 99.6405 891.837 99.8547C890.997 100.022 889.36 100.168 886.678 100.168C883.366 100.168 880.319 99.9214 877.526 99.4446C876.216 99.2209 875.156 98.9732 874.309 98.7268L870.644 63.4299L870.293 60.054L867.025 59.134C860.946 57.4217 851.769 56.676 839.893 56.676C837.303 56.676 835.279 56.7131 833.902 56.7991L830.465 57.0139L829.44 60.302C825.987 71.3843 824.148 85.9531 823.765 103.812L823.764 103.865V108.348C823.764 119.829 824.495 130.07 825.989 139.036L825.991 139.052L825.994 139.068C826.983 144.771 827.832 149.221 828.541 152.371L828.554 152.429L828.568 152.486C829.389 155.769 830.461 158.695 831.927 160.998L831.998 161.112L832.076 161.22C833.965 163.864 836.772 165.698 840.347 165.698C847.531 165.698 853.957 163.168 859.444 158.31C864.659 153.76 869.029 148.028 872.598 141.215L873.404 139.676L873.081 137.968L870.841 126.102C878.863 123.785 886.759 122.608 894.539 122.546C898.863 122.548 902.431 123.039 905.322 123.919C906.997 124.429 908.012 125.193 908.665 126.217C907.235 137.006 905.013 150.143 901.984 165.645C900.401 173.75 899.026 180.21 897.858 185.048C897.094 188.213 896.451 190.536 895.938 192.129C892.362 193.061 888.938 193.514 885.656 193.514C883.58 193.514 881.323 193.346 878.881 192.997C877.946 192.86 877.077 192.695 876.27 192.51C876.167 189.232 875.963 184.436 875.66 178.172L875.321 169.808L875.177 166.233L871.746 165.216L868.68 164.308L864.951 163.203L862.963 166.546C857.978 174.927 852.466 181.573 846.475 186.595C840.76 191.313 834.784 193.514 828.423 193.514C819.973 193.514 812.72 190.455 806.426 184.095C799.998 177.599 794.806 168.101 791.097 155.226C787.395 142.304 785.501 127.08 785.501 109.484C785.501 92.6985 787.931 78.019 792.678 65.3616L792.681 65.3528C797.36 52.8043 804.654 43.0808 814.533 35.9846L814.538 35.9807C824.322 28.9338 836.968 25.2268 852.838 25.2268Z" fill="#047578" stroke="white" stroke-width="10"/>
<path d="M636.287 52.7489L632.885 51.6014L617.302 46.3397C616.354 43.4233 615.846 40.0734 615.846 36.2381C615.846 33.4841 616.163 31.0338 616.753 28.8553C621.356 27.8033 626.772 26.9572 633.028 26.3377L633.05 26.3358L633.072 26.3338C640.63 25.5188 647.907 25.1131 654.907 25.1131C664.287 25.1131 672.582 25.7442 679.819 26.9706C683.422 34.4529 688.573 47.2857 695.293 65.6639L695.299 65.6795C702.758 85.8705 711.741 112.403 722.253 145.301L723.508 149.225L727.6 148.744L729.531 148.517L734.496 147.932L733.913 142.969C731.725 124.336 729.534 102.475 727.342 77.3817H727.343C725.456 54.9423 724.425 38.9639 724.22 29.3211C727.001 28.2607 730.04 27.3888 733.349 26.7167L733.385 26.7088L733.422 26.701C737.988 25.7023 742.091 25.2264 745.753 25.2264C750.55 25.2264 755.184 26.0152 759.677 27.5975L748.944 167.471L748.808 169.242L749.821 170.702C752.837 175.052 754.908 180.128 755.971 186.013C753.651 187.903 750.316 189.617 745.702 190.992C739.915 192.663 733.694 193.514 727.016 193.514C721.832 193.514 717.216 192.981 713.137 191.963C710.307 191.242 708.149 190.296 706.526 189.223C706.689 184.752 707.136 180.675 707.851 176.979L708.173 175.311L707.414 173.793C702.164 163.294 697.066 151.785 692.123 139.261L691.136 136.742C685.932 123.089 679.286 104.966 671.197 82.3622L671.193 82.3504L666.197 68.496L664.783 64.5751L660.671 65.2606L659.99 65.3739L655.209 66.1708L655.856 70.9735C657.427 82.6439 659.122 99.9459 660.937 122.936V122.937C662.753 145.86 663.647 162.462 663.647 172.849C663.647 180.294 661.463 185.115 657.799 188.232L657.785 188.245L657.771 188.257C654.098 191.429 647.701 193.514 637.532 193.514C634.845 193.513 631.835 192.994 628.467 191.849C625.049 190.687 621.987 189.236 619.26 187.514C617.331 186.206 616.031 185.074 615.194 184.148C615.343 179.826 616.083 175.73 617.399 171.841C618.377 168.95 619.495 166.924 620.63 165.534C621.047 165.691 621.51 165.862 622.018 166.055L622.114 166.091L622.21 166.123C624.716 166.958 627.428 167.654 630.333 168.219L636.287 169.376V52.7489Z" fill="#047578" stroke="white" stroke-width="10"/>
<path d="M566.897 25.2268C574.945 25.2268 580.998 27.0267 585.459 30.2043L585.472 30.2131L585.485 30.2229C589.695 33.1809 591.976 37.3539 592.222 43.3694C592.371 47.7104 592.444 51.3864 592.444 54.4075C592.444 68.5846 591.844 85.7401 590.637 105.891C589.427 125.998 587.802 149.783 585.759 177.248L585.758 177.257L585.757 177.265L584.822 190.45C580.229 192.543 575.039 193.627 569.169 193.627C564.45 193.627 559.993 192.946 555.772 191.603V190.678C555.772 187.363 555.62 177.651 555.317 161.626L555.316 161.609V161.592L555.104 152.951C554.64 133.14 554.409 115.776 554.409 100.854C554.409 84.1756 554.711 70.1111 555.311 58.6438L555.553 54.0159L550.957 53.4231L535.882 51.4807C535.323 48.9795 534.914 46.8178 534.645 44.9836L534.498 43.9085C534.215 41.583 534.068 38.918 534.065 35.8997C535.198 34.933 537.023 33.7071 539.787 32.2737L539.803 32.2659L539.817 32.2581C543.613 30.2565 547.958 28.566 552.877 27.2102C557.798 25.8745 562.467 25.2268 566.897 25.2268Z" fill="#047578" stroke="white" stroke-width="10"/>
<path d="M471.055 25.2268H474.802C478.538 25.2268 483.849 25.3626 490.766 25.6379L491.713 26.0706C496.282 43.0021 500.666 63.4009 504.853 87.2942L504.857 87.3118C509.307 112.204 512.658 135.028 514.915 155.788L514.917 155.816L514.92 155.844L515.261 158.683L515.268 158.739L515.276 158.794C515.331 159.183 515.508 160.852 515.817 164.023L515.819 164.035C516.107 166.912 516.248 169.66 516.248 172.281C516.248 175.332 515.944 178.345 515.338 181.325C514.465 185.142 513.02 188.175 511.101 190.569C508.803 191.434 506.395 192.106 503.868 192.576L503.8 192.588L503.734 192.603C500.984 193.192 497.64 193.514 493.653 193.514C489.887 193.514 486.109 193.069 482.312 192.171L482.279 192.163L482.247 192.156L481.565 191.996C480.1 191.633 479.075 191.244 478.369 190.9L482.013 167.721L482.111 167.098L482.051 166.47L475.263 95.3098L475.828 57.5491L475.903 52.4739H462.971L462.358 56.7668L456.836 95.4133C449.469 122.677 442.782 143.626 436.785 158.36L435.923 160.476L436.96 162.513C438.927 166.375 440.637 170.708 442.076 175.529L442.085 175.562L442.096 175.594C443.304 179.449 444.127 183.199 444.58 186.849C442.262 188.56 439.221 190.052 435.318 191.228L435.308 191.231L435.299 191.234C430.357 192.744 425.061 193.514 419.386 193.514C413.57 193.514 408.363 192.709 403.718 191.162C400.12 189.944 397.653 188.465 396.013 186.892C396.563 180.634 398.241 174.561 401.071 168.65L401.878 166.96L401.379 165.156L381.191 92.2307L372.801 57.8772L371.721 53.4543L367.216 54.1174L363.355 54.6848L358.42 55.4104L359.134 60.3469L364.638 98.428C364.336 111.649 363.849 125.095 363.177 138.764C362.498 152.581 361.746 163.458 360.926 171.43L360.75 173.153C360.102 176.377 358.868 179.225 357.062 181.753L357.056 181.761L357.05 181.77C354.95 184.735 352.28 187.04 348.981 188.721L348.963 188.73L348.947 188.739C345.752 190.398 342.269 191.242 338.418 191.242C333.093 191.242 328.802 190.1 325.34 188.032C322.102 186.098 319.325 183.195 317.073 179.111C316.993 178.17 316.959 177.495 316.959 177.051C316.959 174.044 317.384 170.926 318.262 167.684L318.268 167.658C318.77 165.765 319.353 164.138 319.994 162.749L327.39 164.137L332.664 165.125L333.279 159.795L345.543 53.5051L346.101 48.6702L341.284 47.9817L326.875 45.9231C326.244 43.5859 325.93 41.2321 325.93 38.8508C325.93 36.1237 326.37 33.2988 327.292 30.3626C330.8 29.1203 336.409 27.9525 344.452 27.01L344.485 27.0061C354.104 25.8131 362.56 25.2268 369.875 25.2268C376.619 25.2268 384.899 25.3673 394.722 25.6497L395.812 26.1477C397.328 30.7947 399.329 38.0131 401.819 47.9065L401.824 47.9251L401.829 47.9446C404.771 59.2617 409.759 79.2919 416.8 108.061L416.806 108.082L416.811 108.104C417.94 112.544 419.184 117.595 420.542 123.256L430.224 123.418C433.891 110.127 438.375 91.4184 443.677 67.3352L443.678 67.3362L446.517 54.9583L442.611 54.0618L443.042 48.9094L427.029 46.2083C426.105 43.3339 425.635 40.2838 425.635 37.0335C425.635 35.0608 425.822 32.9207 426.21 30.6057C432.385 28.8032 438.791 27.4877 445.43 26.6653L445.431 26.6663C453.223 25.7106 461.762 25.2268 471.055 25.2268Z" fill="#047578" stroke="white" stroke-width="10"/>
<path d="M230.651 25.2268C248.725 25.2268 262.101 29.0034 271.381 35.9299L271.397 35.9426L271.413 35.9543C281.01 42.9966 287.628 52.5081 291.271 64.6975L291.275 64.7141L291.28 64.7297C295.108 77.2229 297.08 92.4114 297.08 110.392C297.08 136.71 291.677 157.022 281.395 171.812C271.562 185.955 255.101 193.514 230.651 193.514C206.021 193.514 189.637 186.014 180.046 172.074C170.058 157.445 164.791 137.054 164.791 110.392C164.791 80.8558 170.617 59.6258 181.438 45.8577C192.078 32.319 208.166 25.2268 230.651 25.2268ZM226.336 56.676C223.591 56.676 221.022 56.8351 218.642 57.1721C216.471 57.4196 214.168 57.8848 212.348 58.9465L211.205 59.6126L210.542 60.7571C207.886 65.3358 206.136 71.5427 205.037 79.0022L205.034 79.0247L205.031 79.0461C204.009 86.4412 203.508 94.8162 203.508 104.147C203.508 114.701 204.086 125.218 205.241 135.697C206.388 146.095 207.829 154.333 209.631 160.23L209.969 161.335L210.758 162.18C212.168 163.691 214.094 164.515 215.683 165.03C217.408 165.588 219.472 166.007 221.78 166.331C226.353 166.973 231.205 167.288 236.329 167.288C239.495 167.288 242.119 167.203 244.131 167.01C245.131 166.914 246.09 166.783 246.941 166.588C247.628 166.431 248.893 166.1 250.004 165.267L250.837 164.642L251.352 163.737C253.776 159.469 255.292 152.804 256.284 144.485V144.479C257.296 135.918 257.796 126.406 257.796 115.956C257.796 104.97 257.258 94.7462 256.173 85.2932C255.185 75.9711 253.729 68.6953 251.494 64.1321L251.002 63.1262L250.128 62.427L249.599 62.0227C246.903 60.049 243.437 58.8086 239.601 58.0256C235.542 57.1973 231.142 56.756 226.421 56.676H226.336Z" fill="#047578" stroke="white" stroke-width="10"/>
<path d="M93.0186 25C103.72 25 115.086 26.3664 127.131 29.1279C130.716 31.2964 133.797 33.5237 136.398 35.7998L136.448 35.8438L136.499 35.8857C138.899 37.8762 141.243 40.2868 143.522 43.1426C143.392 47.9532 142.722 54.2565 141.455 62.124C140.044 70.8123 138.268 78.9112 136.131 86.4268L136.126 86.4424L136.121 86.459C135.092 90.1706 134.113 93.1144 133.194 95.3428C132.536 96.9402 131.968 98.0146 131.53 98.7002C130.305 99.272 129.34 99.6413 128.61 99.8555C127.77 100.023 126.134 100.169 123.452 100.169C120.14 100.169 117.093 99.9221 114.3 99.4453C112.99 99.2216 111.929 98.9729 111.082 98.7266L107.417 63.4307L107.066 60.0547L103.799 59.1348L103.229 58.9785C97.2792 57.3921 89.4912 56.6758 80.0723 56.6758C77.4828 56.6758 75.4593 56.7128 74.083 56.7988L70.6455 57.0137L69.6211 60.3018C66.1725 71.3694 64.3339 85.9148 63.9473 103.741C63.8682 105.954 63.8301 109.245 63.8301 113.572C63.8301 123.853 64.3642 132.376 65.4893 139.046V139.045C66.4887 145.04 67.6131 149.865 68.9326 153.296C70.4917 157.35 73.2497 160.513 77.0371 162.663L77.0859 162.69C81.0616 164.888 86.3485 165.699 92.3369 165.699C100.465 165.699 108.058 164.531 115.073 162.138L115.09 162.133L115.105 162.127C120.929 160.095 127.111 157.311 133.646 153.808C135.186 155.543 136.405 156.998 137.317 158.184L137.354 158.23L137.391 158.276C138.652 159.838 139.879 161.87 141.031 164.444L141.054 164.494L141.077 164.543C141.982 166.453 142.672 168.666 143.111 171.215C141.961 172.751 139.627 175.117 135.552 178.365C130.831 182.128 124.457 185.653 116.286 188.863C108.472 191.933 99.6045 193.514 89.6113 193.514C66.0805 193.514 50.1175 186.224 40.4307 172.568C30.3667 158.381 25 137.57 25 109.484C25 92.7926 27.4626 78.1213 32.2793 65.3906C37.1048 52.7592 44.5505 42.9461 54.5918 35.7637C64.458 28.7066 77.1505 25 93.0186 25Z" fill="#047578" stroke="white" stroke-width="10"/>
<path d="M1410.04 181.232C1410.72 181.46 1412.16 181.99 1414.36 182.824C1416.63 183.582 1419.14 184.226 1421.86 184.757V77.6632L1404.02 71.6378C1402.27 67.545 1401.4 62.846 1401.4 57.5406C1401.4 53.2204 1402.08 49.3551 1403.45 45.9444C1408.9 44.5044 1415.46 43.4054 1423.12 42.6475C1430.85 41.8138 1438.31 41.3969 1445.51 41.3969C1456.2 41.3969 1465.63 42.1928 1473.82 43.7844C1477.61 51.1362 1483.22 64.9681 1490.65 85.2803C1498.15 105.592 1507.17 132.233 1517.7 165.203L1519.64 164.975C1517.44 146.255 1515.24 124.313 1513.04 99.1501C1510.92 73.9115 1509.86 56.6311 1509.86 47.3087C1513.8 45.4897 1518.2 44.0876 1523.05 43.1023C1527.9 42.0412 1532.37 41.5106 1536.46 41.5106C1543.13 41.5106 1549.54 42.8749 1555.67 45.6034L1544.65 189.304C1548.59 194.989 1551.05 201.658 1552.04 209.313C1548.93 212.724 1544.19 215.377 1537.83 217.271C1531.54 219.09 1524.83 220 1517.7 220C1512.17 220 1507.13 219.431 1502.58 218.295C1498.11 217.158 1494.62 215.414 1492.12 213.065C1492.2 207.381 1492.69 202.189 1493.6 197.49C1487.92 186.121 1482.42 173.615 1477.12 159.973C1471.89 146.255 1465.22 128.065 1457.11 105.403L1452.11 91.5331L1451.42 91.6468C1453.01 103.47 1454.72 120.902 1456.54 143.943C1458.36 166.908 1459.27 183.696 1459.27 194.306C1459.27 202.795 1456.73 209.2 1451.65 213.52C1446.65 217.84 1438.8 220 1428.12 220C1424.78 220 1421.22 219.356 1417.43 218.067C1413.64 216.779 1410.19 215.149 1407.09 213.179C1404.05 211.132 1401.93 209.162 1400.72 207.267C1400.72 201.81 1401.55 196.618 1403.22 191.692C1404.89 186.765 1407.16 183.279 1410.04 181.232Z" fill="#E7BC20"/>
<path d="M1250.88 131.779C1250.88 71.6001 1274.53 41.5108 1321.82 41.5108C1340.54 41.5108 1355.13 45.4141 1365.59 53.2206C1376.12 60.9514 1383.36 71.4106 1387.3 84.5983C1391.32 97.7103 1393.33 113.437 1393.33 131.779C1393.33 158.76 1387.8 180.209 1376.73 196.126C1365.67 212.042 1347.36 220 1321.82 220C1296.13 220 1277.86 212.118 1267.02 196.353C1256.26 180.588 1250.88 159.064 1250.88 131.779ZM1327.5 183.734C1333.72 183.734 1337.28 183.393 1338.19 182.711C1340.09 179.376 1341.53 173.578 1342.51 165.316C1343.5 156.979 1343.99 147.657 1343.99 137.349C1343.99 126.511 1343.46 116.469 1342.4 107.222C1341.41 97.8998 1340.01 91.3817 1338.19 87.6679C1336.3 86.1521 1333.49 85.0152 1329.78 84.2573C1326.06 83.4994 1321.97 83.0825 1317.5 83.0067C1314.92 83.0067 1312.57 83.1583 1310.45 83.4615C1308.4 83.6888 1306.93 84.0678 1306.02 84.5983C1303.82 88.3879 1302.19 93.8828 1301.13 101.083C1300.14 108.207 1299.65 116.355 1299.65 125.526C1299.65 135.909 1300.22 146.255 1301.36 156.562C1302.49 166.87 1303.9 174.752 1305.56 180.209C1306.62 181.346 1309.31 182.218 1313.63 182.824C1317.95 183.431 1322.58 183.734 1327.5 183.734Z" fill="#E7BC20"/>
<path d="M1093.08 131.779C1093.08 71.6001 1116.73 41.5108 1164.02 41.5108C1182.74 41.5108 1197.33 45.4141 1207.79 53.2206C1218.33 60.9514 1225.56 71.4106 1229.5 84.5983C1233.52 97.7103 1235.53 113.437 1235.53 131.779C1235.53 158.76 1230 180.209 1218.93 196.126C1207.87 212.042 1189.56 220 1164.02 220C1138.33 220 1120.06 212.118 1109.22 196.353C1098.46 180.588 1093.08 159.064 1093.08 131.779ZM1169.7 183.734C1175.92 183.734 1179.48 183.393 1180.39 182.711C1182.29 179.376 1183.73 173.578 1184.71 165.316C1185.7 156.979 1186.19 147.657 1186.19 137.349C1186.19 126.511 1185.66 116.469 1184.6 107.222C1183.61 97.8998 1182.21 91.3817 1180.39 87.6679C1178.5 86.1521 1175.69 85.0152 1171.98 84.2573C1168.26 83.4994 1164.17 83.0825 1159.7 83.0067C1157.12 83.0067 1154.77 83.1583 1152.65 83.4615C1150.61 83.6888 1149.13 84.0678 1148.22 84.5983C1146.02 88.3879 1144.39 93.8828 1143.33 101.083C1142.34 108.207 1141.85 116.355 1141.85 125.526C1141.85 135.909 1142.42 146.255 1143.56 156.562C1144.69 166.87 1146.1 174.752 1147.76 180.209C1148.82 181.346 1151.51 182.218 1155.84 182.824C1160.16 183.431 1164.78 183.734 1169.7 183.734Z" fill="#E7BC20"/>
<path d="M965.638 192.829C965.638 188.963 966.358 185.06 967.798 181.119C969.238 177.178 971.474 173.464 974.505 169.978C985.571 174.828 995.197 178.542 1003.38 181.119C1011.64 183.696 1020.13 184.984 1028.85 184.984C1030.44 184.984 1032.07 184.833 1033.74 184.53C1035.48 184.226 1036.84 183.81 1037.83 183.279C1038.21 182.445 1038.51 181.384 1038.74 180.096C1038.97 178.732 1039.08 177.633 1039.08 176.799C1039.08 173.085 1037.3 169.902 1033.74 167.249C1030.17 164.596 1025.48 161.944 1019.64 159.291L1015.66 157.358C1004.29 151.522 995.159 146.293 988.262 141.669C981.44 136.97 975.642 130.831 970.867 123.252C966.168 115.597 963.819 106.237 963.819 95.1713C963.819 78.9519 968.328 65.9536 977.348 56.1765C986.443 46.3994 1000.88 41.5108 1020.66 41.5108C1037.56 41.5108 1050.94 42.534 1060.79 44.5804C1064.89 47.0057 1068.45 49.5447 1071.48 52.1974C1074.59 54.7744 1077.54 57.9197 1080.35 61.6335C1080.35 66.9389 1079.82 72.6991 1078.76 78.914C1077.77 85.0531 1076.37 90.6996 1074.55 95.8534C1072.81 101.007 1070.91 104.721 1068.87 106.995C1067.12 107.828 1065.19 108.473 1063.07 108.927C1060.95 109.306 1058.33 109.496 1055.22 109.496C1051.96 109.496 1049.31 109.269 1047.27 108.814C1045.22 108.359 1043.32 107.601 1041.58 106.54L1038.06 82.893C1033.66 81.6804 1029 80.8088 1024.07 80.2782C1019.15 79.6719 1015.81 79.4066 1014.07 79.4824C1011.26 80.7709 1009.33 82.5899 1008.27 84.9394C1007.29 87.2132 1006.79 89.9417 1006.79 93.1249C1006.79 96.5355 1007.7 99.4914 1009.52 101.993C1011.42 104.418 1013.69 106.426 1016.34 108.018C1019 109.61 1022.41 111.391 1026.57 113.361L1031.58 115.862C1042.41 121.547 1050.94 126.511 1057.16 130.755C1063.37 135 1068.56 140.381 1072.73 146.899C1076.98 153.341 1079.1 161.148 1079.1 170.319C1079.1 181.005 1076.29 190.214 1070.68 197.945C1065.08 205.6 1057.88 211.132 1049.08 214.543C1044.31 216.438 1039.04 217.802 1033.28 218.636C1027.52 219.47 1020.85 219.886 1013.27 219.886C1008.12 219.886 1002.59 219.242 996.675 217.954C990.763 216.665 985.003 214.391 979.394 211.132C973.861 207.873 969.427 203.515 966.093 198.058C965.789 196.618 965.638 194.875 965.638 192.829Z" fill="#E7BC20"/>
<path d="M1426.86 52.6768L1423.46 51.5293L1407.86 46.2617C1406.91 43.3405 1406.4 39.9853 1406.4 36.1436C1406.4 33.3844 1406.72 30.9295 1407.31 28.7471C1411.92 27.6934 1417.34 26.8468 1423.61 26.2266L1423.63 26.2236L1423.65 26.2217C1431.22 25.4057 1438.5 25 1445.51 25C1454.9 25 1463.21 25.6312 1470.46 26.8594C1474.06 34.3501 1479.22 47.199 1485.95 65.6006L1485.96 65.6162C1493.42 85.8302 1502.42 112.392 1512.94 145.327L1514.19 149.253L1518.29 148.771L1520.22 148.544L1525.18 147.96L1524.6 142.995C1522.41 124.341 1520.22 102.456 1518.02 77.334H1518.02C1516.14 54.8663 1515.1 38.8683 1514.9 29.2148C1517.68 28.1525 1520.73 27.2787 1524.04 26.6055L1524.08 26.5977L1524.12 26.5898C1528.69 25.59 1532.79 25.1133 1536.46 25.1133C1541.27 25.1133 1545.91 25.904 1550.41 27.4893L1539.66 167.524L1539.53 169.296L1540.54 170.756C1543.56 175.113 1545.63 180.196 1546.7 186.09C1544.37 187.984 1541.03 189.7 1536.41 191.077C1530.62 192.75 1524.39 193.603 1517.7 193.603C1512.51 193.603 1507.89 193.07 1503.81 192.05C1500.97 191.328 1498.81 190.381 1497.18 189.306C1497.35 184.828 1497.79 180.744 1498.51 177.043L1498.83 175.376L1498.07 173.856C1492.47 162.654 1487.04 150.302 1481.79 136.795C1476.58 123.122 1469.92 104.968 1461.82 82.3213L1461.81 82.3096L1456.81 68.4395L1455.39 64.5186L1451.28 65.2041L1450.6 65.3174L1445.82 66.1143L1446.47 70.917C1448.04 82.6008 1449.74 99.9226 1451.55 122.939V122.94C1453.37 145.889 1454.27 162.51 1454.27 172.909C1454.27 180.363 1452.08 185.192 1448.41 188.314L1448.4 188.326L1448.38 188.339C1444.7 191.516 1438.3 193.603 1428.12 193.603C1425.43 193.603 1422.41 193.083 1419.04 191.937C1415.62 190.774 1412.56 189.323 1409.83 187.601C1407.89 186.288 1406.59 185.152 1405.75 184.223C1405.9 179.894 1406.64 175.792 1407.96 171.897C1408.94 169.001 1410.06 166.972 1411.19 165.579C1411.61 165.736 1412.08 165.909 1412.59 166.103L1412.68 166.139L1412.78 166.171C1415.29 167.007 1418 167.702 1420.91 168.268L1426.86 169.426V52.6768Z" fill="#047578" stroke="white" stroke-width="10"/>
<path d="M1321.82 25.1138C1339.92 25.1138 1353.31 28.8952 1362.6 35.8306L1362.62 35.8423L1362.63 35.855C1372.24 42.906 1378.87 52.4291 1382.51 64.6333L1382.52 64.6499L1382.52 64.6655C1386.36 77.1735 1388.33 92.38 1388.33 110.381C1388.33 136.73 1382.92 157.066 1372.63 171.875C1362.78 186.035 1346.3 193.603 1321.82 193.603C1297.16 193.603 1280.76 186.094 1271.15 172.137C1261.15 157.49 1255.88 137.074 1255.88 110.381C1255.88 80.8111 1261.71 59.5552 1272.54 45.77C1283.2 32.2142 1299.31 25.1138 1321.82 25.1138ZM1317.5 56.6099C1314.75 56.6099 1312.17 56.7706 1309.79 57.1089C1307.62 57.3569 1305.32 57.8216 1303.5 58.8823L1302.36 59.5483L1301.69 60.6929C1299.03 65.2758 1297.28 71.489 1296.18 78.9565L1296.18 78.979L1296.18 79.0015C1295.15 86.4044 1294.65 94.7878 1294.65 104.128C1294.65 114.695 1295.23 125.223 1296.39 135.713C1297.53 146.124 1298.98 154.37 1300.78 160.274L1301.12 161.379L1301.91 162.224C1303.32 163.736 1305.24 164.56 1306.83 165.076C1308.56 165.635 1310.63 166.054 1312.94 166.378C1317.52 167.021 1322.37 167.336 1327.5 167.336C1330.67 167.336 1333.3 167.251 1335.31 167.058C1336.31 166.962 1337.28 166.83 1338.13 166.635C1338.81 166.478 1340.08 166.147 1341.19 165.314L1342.02 164.689L1342.54 163.784C1344.96 159.512 1346.48 152.84 1347.48 144.511L1347.48 144.506C1348.49 135.937 1348.99 126.414 1348.99 115.953C1348.99 105.642 1348.52 96.001 1347.56 87.0386L1347.36 85.2554C1346.38 75.9224 1344.92 68.6393 1342.68 64.0718L1342.19 63.0659L1341.31 62.3667L1340.79 61.9614C1338.09 59.9862 1334.62 58.7452 1330.78 57.9614C1326.71 57.1323 1322.31 56.6909 1317.58 56.6108L1317.54 56.6099H1317.5Z" fill="#047578" stroke="white" stroke-width="10"/>
<path d="M1164.02 25.1138C1182.12 25.1138 1195.51 28.8952 1204.8 35.8306L1204.82 35.8423L1204.83 35.855C1214.44 42.906 1221.07 52.4291 1224.71 64.6333L1224.72 64.6499L1224.72 64.6655C1228.56 77.1735 1230.53 92.38 1230.53 110.381C1230.53 136.73 1225.12 157.066 1214.83 171.875C1204.98 186.035 1188.5 193.603 1164.02 193.603C1139.36 193.603 1122.96 186.094 1113.35 172.137C1103.35 157.49 1098.08 137.074 1098.08 110.381C1098.08 80.8111 1103.91 59.5552 1114.75 45.77C1125.4 32.2142 1141.51 25.1138 1164.02 25.1138ZM1159.7 56.6099C1156.95 56.6099 1154.37 56.7706 1151.99 57.1089C1149.82 57.3569 1147.52 57.8216 1145.7 58.8823L1144.56 59.5483L1143.89 60.6929C1141.23 65.2758 1139.48 71.489 1138.38 78.9565L1138.38 78.979L1138.38 79.0015C1137.35 86.4044 1136.85 94.7878 1136.85 104.128C1136.85 114.695 1137.43 125.223 1138.59 135.713C1139.74 146.124 1141.18 154.37 1142.98 160.274L1143.32 161.379L1144.11 162.224C1145.52 163.736 1147.45 164.56 1149.04 165.076C1150.76 165.635 1152.83 166.054 1155.14 166.378C1159.72 167.021 1164.57 167.336 1169.7 167.336C1172.87 167.336 1175.5 167.251 1177.51 167.058C1178.51 166.962 1179.48 166.83 1180.33 166.635C1181.01 166.478 1182.28 166.147 1183.39 165.314L1184.22 164.689L1184.74 163.784C1187.17 159.512 1188.68 152.84 1189.68 144.511L1189.68 144.506C1190.69 135.937 1191.19 126.414 1191.19 115.953C1191.19 105.642 1190.72 96.001 1189.76 87.0386L1189.56 85.2554C1188.58 75.9224 1187.12 68.6393 1184.88 64.0718L1184.39 63.0659L1183.52 62.3667L1182.99 61.9614C1180.29 59.9862 1176.82 58.7452 1172.98 57.9614C1168.92 57.1323 1164.51 56.6909 1159.78 56.6108L1159.74 56.6099H1159.7Z" fill="#047578" stroke="white" stroke-width="10"/>
<path d="M1020.66 25.1138C1036.94 25.1138 1049.66 26.0746 1058.96 27.9126C1062.53 30.0741 1065.6 32.2946 1068.19 34.563L1068.24 34.6069L1068.29 34.6489C1070.69 36.6437 1073.04 39.0598 1075.33 41.9224C1075.23 46.4423 1074.74 51.3568 1073.83 56.6753L1073.82 56.7241C1072.88 62.6062 1071.54 67.9575 1069.84 72.7925L1069.82 72.8227L1069.81 72.854C1068.38 77.0798 1066.98 79.8474 1065.75 81.5083C1064.66 81.9534 1063.45 82.3283 1062.11 82.6206C1060.38 82.922 1058.11 83.0991 1055.22 83.0991C1052.15 83.0991 1049.9 82.8803 1048.35 82.5356C1047.58 82.3644 1046.85 82.1373 1046.15 81.8559L1043 60.7593L1042.52 57.5415L1039.39 56.6763L1038.51 56.438C1034.1 55.2743 1029.48 54.435 1024.64 53.9126C1019.79 53.3164 1016.07 52.994 1013.85 53.0903L1012.87 53.1323L1011.98 53.5415C1008.31 55.2294 1005.36 57.8283 1003.71 61.4849L1003.7 61.519L1003.68 61.5542C1002.36 64.6067 1001.79 68.0476 1001.79 71.728C1001.79 76.0811 1002.97 80.093 1005.48 83.5366L1005.53 83.6059L1005.58 83.6733C1007.86 86.5848 1010.59 89.003 1013.77 90.9087C1016.61 92.6121 1020.17 94.4678 1024.41 96.4741L1029.29 98.9116C1040.03 104.546 1048.36 109.403 1054.34 113.488C1059.98 117.342 1064.7 122.229 1068.52 128.196L1068.56 128.252C1072.17 133.734 1074.1 140.541 1074.1 148.921C1074.1 158.675 1071.56 166.819 1066.65 173.592C1061.6 180.483 1055.17 185.421 1047.28 188.485L1047.26 188.492L1047.24 188.499C1042.87 190.232 1037.99 191.505 1032.57 192.291C1027.1 193.081 1020.68 193.49 1013.27 193.49C1008.53 193.49 1003.36 192.896 997.739 191.671C992.38 190.503 987.114 188.435 981.931 185.427H981.932C977.367 182.738 973.687 179.218 970.844 174.825C970.716 173.928 970.638 172.807 970.638 171.432C970.638 168.2 971.238 164.876 972.495 161.438C973.337 159.133 974.514 156.887 976.052 154.699C985.759 158.856 994.373 162.127 1001.88 164.491L1001.89 164.495C1010.64 167.223 1019.63 168.587 1028.85 168.587C1030.76 168.587 1032.69 168.406 1034.63 168.052L1034.63 168.05C1036.62 167.702 1038.56 167.168 1040.2 166.285L1041.68 165.485L1042.38 163.951C1042.99 162.61 1043.39 161.109 1043.66 159.568L1043.67 159.521C1043.92 158.037 1044.08 156.631 1044.08 155.402C1044.08 149.789 1041.27 145.23 1036.72 141.842C1032.8 138.92 1027.79 136.111 1021.8 133.382L1017.88 131.478C1006.66 125.716 997.747 120.607 991.09 116.149C984.883 111.871 979.552 106.253 975.114 99.2153C971.008 92.5155 968.819 84.1175 968.819 73.7739C968.819 58.9979 972.774 47.5646 980.285 38.9907L981.023 38.1694C988.797 29.8237 1001.61 25.1138 1020.66 25.1138Z" fill="#047578" stroke="white" stroke-width="10"/>
</svg>
