<svg width="303" height="170" viewBox="0 0 303 170" fill="none" xmlns="http://www.w3.org/2000/svg">
<path d="M263.286 166.262L294.021 166.504L294.325 127.707L263.591 127.466L263.286 166.262Z" fill="#EBEBEB"/>
<path d="M282.298 128.858L281.753 166.42L276.898 166.385L277.937 128.823L282.298 128.858Z" fill="#FAFAFA"/>
<path d="M245.941 128.574L263.572 128.714L294.307 128.954L263.541 133.001L263.279 166.276L245.653 166.141L245.941 128.574Z" fill="#E0E0E0"/>
<path d="M255.54 128.648L254.837 166.211L249.607 166.172L250.463 128.609L255.54 128.648Z" fill="#FAFAFA"/>
<path d="M269.495 117.216C269.495 117.294 268.976 117.39 268.028 117.482C266.689 117.613 265.345 117.672 263.999 117.661C261.968 117.67 259.944 117.404 257.984 116.871C257.679 116.773 257.387 116.641 257.111 116.478C256.787 116.292 256.512 116.032 256.308 115.719C256.097 115.382 255.986 114.994 255.985 114.597C255.986 114.249 256.03 113.903 256.116 113.567C256.391 112.306 256.772 111.07 257.255 109.874C257.522 109.249 257.856 108.654 258.25 108.101C258.644 107.533 259.14 107.043 259.713 106.656C260.02 106.449 260.364 106.301 260.725 106.22C261.094 106.14 261.475 106.14 261.843 106.22C262.47 106.4 263.05 106.716 263.541 107.145C265.13 108.431 266.483 109.984 267.54 111.733C268.25 112.899 268.795 114.158 269.159 115.474C269.399 116.408 269.425 116.941 269.36 116.958C269.168 117.015 268.736 114.915 266.863 112.157C265.764 110.565 264.422 109.156 262.886 107.979C262.503 107.658 262.057 107.422 261.577 107.285C261.354 107.241 261.125 107.243 260.904 107.291C260.682 107.339 260.473 107.432 260.289 107.564C259.84 107.882 259.453 108.279 259.145 108.734C258.801 109.224 258.509 109.748 258.272 110.297C257.819 111.432 257.452 112.599 257.177 113.789C257.016 114.213 257.027 114.683 257.207 115.099C257.485 115.46 257.872 115.72 258.312 115.841C258.809 116.002 259.314 116.136 259.826 116.242C260.328 116.356 260.826 116.443 261.31 116.517C262.275 116.67 263.183 116.758 264.021 116.814C265.693 116.928 267.077 116.95 268.007 116.998C268.936 117.046 269.491 117.137 269.495 117.216Z" fill="#E0E0E0"/>
<path d="M268.858 117.5C268.858 117.421 269.417 117.255 270.451 117.02C271.486 116.784 272.996 116.474 274.816 116.033C276.958 115.539 279.057 114.876 281.094 114.051C281.652 113.84 282.182 113.558 282.669 113.213C282.877 113.066 283.05 112.875 283.176 112.654C283.276 112.458 283.307 112.233 283.263 112.017C283.198 111.729 283.097 111.45 282.962 111.188C282.818 110.878 282.669 110.563 282.525 110.249C282.232 109.625 281.897 109.021 281.521 108.442C281.152 107.88 280.712 107.368 280.212 106.918C279.759 106.488 279.228 106.145 278.649 105.91C278.132 105.707 277.562 105.683 277.03 105.84C276.491 106.03 275.997 106.327 275.576 106.713C273.938 108.148 272.521 109.818 271.372 111.668C270.598 112.921 269.971 114.26 269.504 115.658C269.177 116.657 269.046 117.229 268.958 117.216C268.871 117.203 268.875 116.609 269.076 115.548C269.391 114.048 269.93 112.603 270.674 111.262C271.779 109.267 273.202 107.465 274.886 105.928C275.404 105.427 276.021 105.042 276.698 104.797C277.458 104.556 278.277 104.575 279.024 104.854C279.39 104.985 279.739 105.16 280.063 105.373C280.38 105.583 280.682 105.815 280.967 106.067C281.535 106.581 282.033 107.168 282.447 107.813C282.849 108.436 283.21 109.085 283.525 109.756L283.961 110.721C284.137 111.074 284.264 111.45 284.337 111.838C284.419 112.295 284.344 112.766 284.123 113.174C283.919 113.532 283.639 113.84 283.302 114.077C282.735 114.471 282.119 114.788 281.469 115.02C279.361 115.822 277.181 116.424 274.96 116.819C273.079 117.168 271.547 117.347 270.49 117.456C269.434 117.565 268.871 117.574 268.858 117.5Z" fill="#FAFAFA"/>
<path d="M240.347 128.518L285.525 128.873L285.626 116.031L240.447 115.676L240.347 128.518Z" fill="#E0E0E0"/>
<path d="M256.966 128.644L297.801 128.965L297.902 116.123L257.067 115.802L256.966 128.644Z" fill="#EBEBEB"/>
<path d="M285.363 116.042L285.079 128.941L280.317 128.84L280.649 116.002L285.363 116.042Z" fill="#FAFAFA"/>
<path d="M251.528 115.841L251.065 128.627L245.832 128.583L246.111 115.736L251.528 115.841Z" fill="#FAFAFA"/>
<path d="M286.73 166.717L300.768 166.827L300.907 149.105L286.869 148.995L286.73 166.717Z" fill="#EBEBEB"/>
<path d="M295.412 149.641L295.163 166.796L292.941 166.783L293.417 149.623L295.412 149.641Z" fill="#FAFAFA"/>
<path d="M278.802 149.51L286.856 149.571L300.894 149.684L286.843 151.531L286.72 166.73L278.671 166.669L278.802 149.51Z" fill="#E0E0E0"/>
<path d="M283.184 149.545L282.866 166.704L280.474 166.682L280.867 149.527L283.184 149.545Z" fill="#FAFAFA"/>
<path d="M289.562 144.324C289.562 144.468 288.623 144.686 287.043 144.76C286.089 144.796 285.134 144.691 284.21 144.45C283.837 144.352 283.509 144.127 283.285 143.813C283.158 143.613 283.09 143.382 283.088 143.145C283.088 142.962 283.109 142.779 283.149 142.599C283.276 142.003 283.454 141.419 283.682 140.853C283.813 140.545 283.977 140.253 284.171 139.98C284.372 139.685 284.629 139.432 284.926 139.234C285.101 139.119 285.298 139.04 285.504 139.004C285.711 138.967 285.922 138.972 286.127 139.02C286.45 139.117 286.748 139.284 287 139.509C287.74 140.119 288.363 140.858 288.837 141.692C289.627 143.136 289.619 144.18 289.483 144.197C289.348 144.215 289.047 143.324 288.174 142.128C287.663 141.443 287.054 140.837 286.367 140.33C286.226 140.21 286.06 140.122 285.882 140.072C285.819 140.063 285.755 140.066 285.693 140.083C285.632 140.099 285.574 140.128 285.524 140.168C285.353 140.295 285.206 140.45 285.088 140.626C284.945 140.833 284.823 141.054 284.725 141.286C284.523 141.786 284.36 142.301 284.236 142.826C284.171 143.071 284.184 143.18 284.206 143.206C284.295 143.315 284.415 143.393 284.551 143.429C284.979 143.57 285.416 143.68 285.86 143.756C286.297 143.835 286.698 143.887 287.074 143.927C288.584 144.084 289.558 144.154 289.562 144.324Z" fill="#E0E0E0"/>
<path d="M289.27 144.472C289.243 144.306 290.295 144.036 291.95 143.599C292.906 143.345 293.844 143.026 294.757 142.643C294.987 142.552 295.205 142.433 295.407 142.29C295.466 142.246 295.515 142.191 295.551 142.128C295.551 142.093 295.551 142.093 295.551 142.028C295.466 141.778 295.361 141.536 295.237 141.303C295.107 141.031 294.961 140.767 294.8 140.513C294.647 140.28 294.467 140.066 294.263 139.876C294.085 139.707 293.878 139.571 293.652 139.474C293.478 139.4 293.284 139.388 293.102 139.439C292.894 139.51 292.702 139.623 292.539 139.771C291.802 140.399 291.156 141.126 290.618 141.932C289.697 143.32 289.505 144.385 289.309 144.359C289.239 144.359 289.191 144.066 289.248 143.564C289.349 142.853 289.572 142.165 289.907 141.53C290.397 140.577 291.048 139.716 291.832 138.985C292.095 138.727 292.411 138.529 292.757 138.405C293.165 138.27 293.607 138.277 294.01 138.426C294.201 138.491 294.383 138.581 294.551 138.693C294.705 138.795 294.851 138.909 294.988 139.033C295.268 139.291 295.513 139.585 295.717 139.906C295.908 140.201 296.078 140.509 296.228 140.827C296.297 140.98 296.363 141.128 296.433 141.264C296.523 141.451 296.587 141.649 296.625 141.853C296.67 142.126 296.624 142.407 296.494 142.652C296.378 142.852 296.22 143.025 296.031 143.158C295.75 143.345 295.445 143.492 295.123 143.595C294.141 143.955 293.124 144.214 292.089 144.367C290.383 144.607 289.296 144.594 289.27 144.472Z" fill="#FAFAFA"/>
<path d="M276.255 149.475L296.889 149.637L296.935 143.77L276.301 143.608L276.255 149.475Z" fill="#E0E0E0"/>
<path d="M283.843 149.535L302.495 149.682L302.541 143.815L283.889 143.669L283.843 149.535Z" fill="#EBEBEB"/>
<path d="M296.808 143.787L296.677 149.676L294.503 149.632L294.656 143.769L296.808 143.787Z" fill="#FAFAFA"/>
<path d="M281.351 143.691L281.142 149.531L278.75 149.514L278.88 143.643L281.351 143.691Z" fill="#FAFAFA"/>
<path d="M19.6192 166.658L44.7969 166.855L45.0465 135.073L19.8688 134.876L19.6192 166.658Z" fill="#EBEBEB"/>
<path d="M35.189 136.004L34.7438 166.778L30.7627 166.748L31.6183 135.978L35.189 136.004Z" fill="#FAFAFA"/>
<path d="M5.40515 135.772L19.8496 135.886L45.028 136.082L19.8234 139.4L19.6095 166.66L5.16943 166.547L5.40515 135.772Z" fill="#E0E0E0"/>
<path d="M13.2676 135.834L12.6958 166.604L8.40918 166.573L9.10761 135.803L13.2676 135.834Z" fill="#FAFAFA"/>
<path d="M24.6997 126.47C24.6997 126.627 24.2632 126.789 23.508 126.946C21.6383 127.298 19.73 127.401 17.8333 127.251C17.3967 127.212 16.9602 127.164 16.5237 127.086C16.0372 127.012 15.556 126.907 15.0832 126.771C14.7863 126.68 14.5008 126.556 14.232 126.4C13.8812 126.2 13.5822 125.921 13.3589 125.584C13.1224 125.208 12.9941 124.775 12.9879 124.331C12.9855 123.993 13.0251 123.656 13.1058 123.327C13.3312 122.253 13.6511 121.202 14.0617 120.184C14.2963 119.631 14.589 119.104 14.9348 118.613C15.1194 118.365 15.3192 118.129 15.5328 117.906C15.7677 117.659 16.0333 117.443 16.3229 117.264C16.6441 117.056 17.0006 116.908 17.3749 116.827C17.7693 116.748 18.1761 116.757 18.5666 116.854C19.1702 117.027 19.7267 117.334 20.1948 117.753C21.5296 118.861 22.6483 120.206 23.4949 121.721C24.0636 122.728 24.4604 123.822 24.6692 124.96C24.7957 125.763 24.7303 126.226 24.5862 126.269C24.2501 126.352 23.7132 124.702 22.1417 122.603C21.2197 121.391 20.129 120.318 18.9027 119.416C18.662 119.213 18.3807 119.064 18.0777 118.979C17.9788 118.966 17.8781 118.973 17.7819 119C17.6858 119.027 17.5962 119.073 17.519 119.137C17.3845 119.231 17.2601 119.339 17.1479 119.46C17.0257 119.595 16.8904 119.765 16.7682 119.931C16.5178 120.295 16.3044 120.682 16.1308 121.088C15.7747 121.981 15.4829 122.899 15.2578 123.834C15.2116 123.984 15.1838 124.139 15.1749 124.296C15.1749 124.397 15.1749 124.405 15.1749 124.427C15.321 124.602 15.5177 124.727 15.738 124.785C16.1173 124.919 16.5034 125.033 16.8947 125.126C17.292 125.226 17.6848 125.305 18.0646 125.379C18.8285 125.518 19.5575 125.619 20.2472 125.697C21.5917 125.85 22.7092 125.942 23.4818 126.06C24.2545 126.178 24.6953 126.313 24.6997 126.47Z" fill="#E0E0E0"/>
<path d="M24.1803 126.697C24.1235 126.374 26.0093 125.85 28.982 125.034C30.6892 124.568 32.3622 123.985 33.9888 123.288C34.3925 123.13 34.774 122.92 35.1238 122.664C35.2195 122.598 35.2987 122.512 35.3552 122.411C35.3552 122.371 35.3552 122.411 35.3552 122.301C35.3062 122.126 35.2389 121.956 35.1544 121.795L34.792 121.04C34.5608 120.557 34.2998 120.089 34.0107 119.639C33.7444 119.227 33.4276 118.85 33.0678 118.517C32.899 118.358 32.718 118.212 32.5265 118.08C32.3668 117.968 32.1938 117.875 32.0114 117.805C31.7234 117.681 31.4019 117.658 31.0991 117.74C30.7385 117.863 30.4072 118.059 30.1257 118.316C28.8092 119.43 27.6505 120.718 26.6815 122.144C25.0184 124.606 24.643 126.51 24.2981 126.457C24.1497 126.457 24.0449 125.929 24.141 125.021C24.308 123.737 24.698 122.491 25.2934 121.341C26.1663 119.618 27.3333 118.061 28.7419 116.74C29.2256 116.267 29.8045 115.903 30.4399 115.671C31.1981 115.423 32.0173 115.437 32.7666 115.71C33.1155 115.832 33.4483 115.996 33.7575 116.199C34.0468 116.385 34.3211 116.594 34.5781 116.823C35.0811 117.28 35.5214 117.801 35.8877 118.373C36.2332 118.909 36.5423 119.467 36.8131 120.045L37.1798 120.848C37.3463 121.192 37.4653 121.558 37.5334 121.935C37.6201 122.451 37.531 122.981 37.2802 123.441C37.0637 123.818 36.7654 124.142 36.4072 124.388C35.8946 124.74 35.3366 125.02 34.7484 125.222C32.981 125.866 31.1506 126.323 29.2875 126.584C28.0548 126.773 26.8109 126.879 25.564 126.902C24.7041 126.929 24.2021 126.854 24.1803 126.697Z" fill="#FAFAFA"/>
<path d="M0.829948 135.737L37.8369 136.028L37.9195 125.508L0.912572 125.217L0.829948 135.737Z" fill="#E0E0E0"/>
<path d="M14.4329 135.841L47.8867 136.104L47.9693 125.584L14.5155 125.322L14.4329 135.841Z" fill="#EBEBEB"/>
<path d="M37.6993 125.505L37.4679 136.074L33.5654 135.991L33.8361 125.475L37.6993 125.505Z" fill="#FAFAFA"/>
<path d="M9.97987 125.34L9.60446 135.816L5.31348 135.781L5.54483 125.257L9.97987 125.34Z" fill="#FAFAFA"/>
<path d="M7.6234 36.2983L6.02574 43.1211L4.463 42.7631L5.77256 37.2062L4.40625 36.8876L4.70308 35.6173L7.6234 36.2983Z" fill="#F5F5F5"/>
<path d="M8.01571 39.9914C8.53954 37.7389 10.0892 36.7524 11.7654 37.1453C13.4416 37.5382 14.3845 39.1096 13.8607 41.3577C13.3369 43.6058 11.8003 44.5967 10.111 44.2038C8.42168 43.8109 7.48752 42.2438 8.01571 39.9914ZM12.2761 40.9867C12.6385 39.437 12.2412 38.6644 11.4511 38.481C10.661 38.2977 9.97568 38.8128 9.61337 40.3624C9.25106 41.9121 9.64393 42.6847 10.4253 42.8681C11.2067 43.0514 11.9095 42.5363 12.2761 40.9867Z" fill="#F5F5F5"/>
<path d="M21.1333 39.4631L21.7095 39.5984L15.4498 45.3299L14.8779 45.1946L21.1333 39.4631ZM15.022 39.9389C15.2839 38.8258 16.0827 38.2321 16.9994 38.446C17.9161 38.6599 18.3657 39.5373 18.1038 40.6592C17.8419 41.781 17.0387 42.3616 16.1307 42.1521C15.2228 41.9425 14.7775 41.0477 15.0351 39.9389H15.022ZM17.6149 40.5457C17.8244 39.6726 17.5276 39.0353 16.8947 38.8869C16.2617 38.7385 15.716 39.175 15.5109 40.0524C15.3057 40.9298 15.5895 41.5628 16.2355 41.7112C16.8816 41.8596 17.4228 41.4536 17.628 40.5457H17.6149ZM18.453 44.1339C18.7106 43.0207 19.5181 42.4314 20.4261 42.641C21.3341 42.8505 21.7924 43.7454 21.5348 44.8541C21.2773 45.9629 20.4741 46.5609 19.5574 46.347C18.6407 46.1331 18.2042 45.2426 18.4661 44.1339H18.453ZM21.0503 44.7406C21.2555 43.8676 20.9717 43.2303 20.3301 43.0818C19.6884 42.9334 19.1515 43.3612 18.9463 44.2474C18.7411 45.1335 19.0336 45.7577 19.6665 45.9061C20.2995 46.0545 20.8539 45.618 21.0503 44.7406Z" fill="#F5F5F5"/>
<path d="M48.9433 106.875C41.3435 99.1004 29.4397 95.8309 18.937 98.6421C27.8933 104.743 38.4605 108.044 49.2969 108.128" fill="#E7BC20"/>
<path d="M38.7639 70.8358C40.0167 61.9919 36.5813 52.0654 29.9593 45.618C29.7411 54.3834 33.4515 64.2443 38.7639 70.8358Z" fill="#E7BC20"/>
<path d="M44.0592 87.537C39.2716 78.4541 31.6537 71.1794 22.3599 66.8154C25.123 76.9951 33.8316 85.3239 44.1247 87.633" fill="#E7BC20"/>
<path d="M45.1547 90.7803C39.816 90.9288 34.4075 90.7411 29.2435 89.3747C24.0795 88.0084 19.1337 85.3806 15.7114 81.2904C26.1609 81.327 36.3681 84.4409 45.0586 90.2434" fill="#E7BC20"/>
<path d="M42.4395 80.1467C45.1502 69.9846 49.6246 62.9566 57.6085 57.2644C58.22 62.2602 57.028 67.3101 54.2471 71.5051C51.4662 75.7002 47.279 78.7646 42.4395 80.1467Z" fill="#E7BC20"/>
<path d="M62.6027 97.6686C62.6225 94.7047 61.7657 91.8012 60.1402 89.3228C58.5146 86.8444 56.1927 84.9019 53.4663 83.7393C53.9028 88.9775 58.0323 95.0538 62.6027 97.6686Z" fill="#E7BC20"/>
<path d="M65.1387 89.0997C65.7454 80.6137 71.7738 72.7608 79.8188 69.9845C77.9898 78.4748 73.0833 85.542 65.1387 89.0997Z" fill="#E7BC20"/>
<path d="M61.3101 104.312C63.1915 101.619 66.2646 99.9472 69.4468 99.109C72.629 98.2709 75.9509 98.2055 79.2379 98.1356C76.9979 100.567 74.2576 102.485 71.2057 103.756C68.1538 105.027 64.8627 105.622 61.5589 105.5" fill="#E7BC20"/>
<path d="M57.4907 125.959C63.4843 124.111 69.9529 124.575 75.6213 127.26C81.2896 129.945 85.7463 134.656 88.1126 140.465C76.99 138.361 66.0116 133.415 57.4907 125.959Z" fill="#E7BC20"/>
<path d="M45.2856 118.434C47.1321 123.895 46.7785 130.499 42.6665 135.205C41.8483 132.388 41.6589 129.426 42.1114 126.528C42.564 123.63 43.6476 120.867 45.2856 118.434Z" fill="#E7BC20"/>
<path d="M38.0747 115.4C37.7751 118.92 36.5734 122.304 34.5854 125.225C32.5975 128.146 29.8904 130.505 26.7252 132.075C26.5779 132.169 26.4128 132.232 26.24 132.26C26.0673 132.288 25.8907 132.28 25.7212 132.237C25.2192 132.036 25.1756 131.364 25.2367 130.814C26.0399 123.829 31.2258 117.05 38.0747 115.4Z" fill="#E7BC20"/>
<path d="M33.3556 114.688C31.7876 116.382 29.8886 117.735 27.7763 118.665C25.6639 119.594 23.3831 120.08 21.0754 120.092C18.7676 120.103 16.482 119.641 14.3601 118.734C12.2383 117.826 10.3255 116.492 8.74023 114.815C16.5627 113.942 25.5942 113.388 33.3556 114.688Z" fill="#E7BC20"/>
<path d="M32.186 52.1353C32.2027 52.2142 32.2261 52.2916 32.2559 52.3666C32.317 52.5281 32.3956 52.7464 32.496 53.0258C32.7186 53.6194 33.0329 54.4706 33.4388 55.5619C33.8448 56.6532 34.3468 58.0064 34.9099 59.5779L35.8135 62.0879C36.1234 62.9609 36.4508 63.93 36.7913 64.9209C38.1794 68.8845 39.716 73.6513 41.3791 78.9332C43.0423 84.2151 44.7272 90.095 46.4122 96.2717C48.0972 102.448 49.5508 108.381 50.8036 113.789C52.0564 119.198 53.0735 124.091 53.8287 128.221C54.0236 129.251 54.2084 130.231 54.383 131.163C54.5446 132.093 54.693 132.974 54.8196 133.782C55.1033 135.423 55.3434 136.837 55.5093 138.003C55.6751 139.168 55.8236 140.05 55.9196 140.674C55.9676 140.967 56.0069 141.198 56.0331 141.369C56.0426 141.448 56.0587 141.527 56.0811 141.604C56.0879 141.524 56.0879 141.444 56.0811 141.364C56.0593 141.194 56.0331 140.963 55.9938 140.666C55.9109 140.037 55.793 139.138 55.6402 137.986C55.4874 136.833 55.2692 135.401 55.0029 133.756C54.8676 132.931 54.7279 132.049 54.5664 131.115C54.4049 130.181 54.2215 129.203 54.0338 128.168C53.3005 124.03 52.2878 119.137 51.0699 113.715C49.852 108.293 48.3591 102.366 46.7047 96.1801C45.0503 89.9946 43.2955 84.1409 41.6454 78.8371C39.9954 73.5334 38.4108 68.7972 36.9965 64.838C36.6473 63.8485 36.3141 62.9071 35.9968 62.0137L35.0714 59.5081C34.4909 57.941 33.9889 56.5965 33.5523 55.5052C33.1158 54.4139 32.7884 53.5801 32.5571 52.9908L32.2908 52.3404C32.2605 52.2698 32.2255 52.2012 32.186 52.1353Z" fill="#263238"/>
<path d="M75.1782 74.52C75.1286 74.5571 75.0832 74.5995 75.0429 74.6466L74.6675 75.0395C74.3401 75.3887 73.8687 75.9125 73.2794 76.5935C71.6005 78.5315 70.0601 80.5853 68.6697 82.7397C66.5992 85.9359 64.9832 89.4045 63.868 93.0459C62.5585 97.1448 61.7727 101.811 60.9783 106.683C59.385 116.439 57.4337 125.178 56.0194 131.499C55.3079 134.646 54.7099 137.195 54.3257 138.985C54.1336 139.858 53.9809 140.535 53.8892 141.019C53.8412 141.242 53.8063 141.417 53.7757 141.552C53.761 141.612 53.7522 141.673 53.7495 141.735C53.7748 141.678 53.7938 141.618 53.8063 141.556C53.8412 141.425 53.8892 141.251 53.9459 141.032C54.0682 140.552 54.234 139.876 54.4523 139.011C54.8888 137.23 55.4869 134.685 56.2377 131.547C57.7044 125.239 59.6905 116.5 61.2838 106.731C62.0827 101.859 62.8728 97.2103 64.143 93.1245C65.2469 89.5018 66.8388 86.0463 68.8749 82.8532C70.2442 80.6963 71.7534 78.6315 73.3929 76.6721C73.9691 75.9736 74.4274 75.4411 74.7417 75.0788C74.8858 74.9085 75.0036 74.7732 75.0909 74.6641C75.1241 74.6186 75.1533 74.5704 75.1782 74.52Z" fill="#263238"/>
<path d="M31.02 114.352C31.11 114.384 31.2042 114.401 31.2994 114.405L32.1113 114.492L32.6963 114.553L33.386 114.654C33.8836 114.728 34.4511 114.802 35.0666 114.937L36.04 115.134L37.0789 115.396C37.8035 115.557 38.55 115.832 39.3488 116.064C41.0568 116.655 42.7138 117.385 44.3033 118.246C45.8816 119.129 47.3699 120.164 48.7471 121.337C49.3435 121.851 49.9118 122.398 50.4495 122.974C50.9299 123.466 51.3803 123.986 51.7983 124.532C52.1562 124.972 52.4899 125.431 52.798 125.907C53.048 126.261 53.2769 126.63 53.4833 127.011L53.898 127.714C53.9413 127.799 53.9956 127.879 54.0595 127.95C54.0366 127.856 53.9999 127.766 53.9504 127.684L53.5837 126.955C53.3963 126.565 53.1804 126.19 52.9377 125.833C52.6418 125.343 52.3182 124.871 51.9686 124.418C51.555 123.86 51.109 123.327 50.6328 122.821C50.0953 122.232 49.5255 121.674 48.926 121.149C47.5446 119.952 46.0438 118.9 44.4474 118.01C42.8424 117.141 41.1659 116.411 39.4361 115.828C38.6286 115.592 37.8734 115.335 37.14 115.182L36.088 114.933L35.1058 114.758C34.4816 114.632 33.9098 114.575 33.4078 114.514L32.7094 114.435L32.1201 114.405L31.3038 114.352C31.2096 114.34 31.1142 114.34 31.02 114.352Z" fill="#263238"/>
<path d="M28.7896 74.7034C28.9553 74.9037 29.141 75.0865 29.3439 75.249L30.9547 76.6459C32.3254 77.8158 34.2286 79.4134 36.3413 81.1682C38.4541 82.923 40.3835 84.4989 41.7847 85.6251L43.4566 86.9346C43.6527 87.1026 43.8664 87.249 44.0939 87.3712C43.9255 87.1704 43.7368 86.9876 43.5308 86.8255L41.9201 85.4286C40.5494 84.2588 38.6462 82.6611 36.5334 80.9063C34.4206 79.1515 32.4956 77.58 31.0944 76.4538L29.4225 75.1443C29.2251 74.9787 29.0133 74.8312 28.7896 74.7034Z" fill="#263238"/>
<path d="M26.8643 85.0576C26.8643 85.1362 30.9501 86.4195 36.0312 87.9255C41.1122 89.4315 45.2723 90.5839 45.2941 90.5054C45.3159 90.4268 41.2083 89.1391 36.1272 87.6374C31.0461 86.1358 26.8904 84.979 26.8643 85.0576Z" fill="#263238"/>
<path d="M42.0381 80.9368C42.2028 80.7554 42.349 80.558 42.4746 80.3475L43.5572 78.6975C44.4739 77.305 45.7791 75.4105 47.3243 73.3894C48.8696 71.3683 50.3538 69.6135 51.4494 68.3607C51.9645 67.7671 52.4011 67.2694 52.759 66.8766C52.9222 66.7017 53.0684 66.5117 53.1955 66.3091C52.9953 66.4471 52.8135 66.6099 52.6542 66.7936C52.3225 67.121 51.851 67.6055 51.2792 68.2167C50.1442 69.4389 48.6252 71.185 47.0755 73.2105C45.5259 75.2359 44.2469 77.161 43.3695 78.5796C42.9329 79.2912 42.5881 79.8892 42.3655 80.2864C42.2311 80.4896 42.1212 80.7079 42.0381 80.9368Z" fill="#263238"/>
<path d="M56.3032 86.6815C56.5899 87.2302 56.9122 87.7595 57.2679 88.2661C57.8834 89.2308 58.7172 90.5709 59.5771 92.0856C60.4371 93.6004 61.166 95.0059 61.6855 96.0143C61.9399 96.5787 62.2316 97.1256 62.5585 97.6513C62.3884 97.0486 62.1604 96.4639 61.8776 95.9052C61.4105 94.8575 60.7077 93.4345 59.8434 91.9067C58.9791 90.3788 58.0973 89.0562 57.4513 88.1177C57.1154 87.6033 56.731 87.1224 56.3032 86.6815Z" fill="#263238"/>
<path d="M61.21 104.587C61.2318 104.627 62.0132 104.243 63.2965 103.666C64.5799 103.09 66.3522 102.357 68.3951 101.623C70.438 100.89 72.2932 100.388 73.6551 100.043C75.0171 99.6984 75.8683 99.502 75.8377 99.4583C75.632 99.4533 75.4266 99.4754 75.2266 99.5238C74.8337 99.5806 74.275 99.6853 73.5853 99.8337C71.7852 100.228 70.011 100.732 68.2728 101.344C66.5349 101.951 64.8352 102.662 63.183 103.474C62.5501 103.789 62.0481 104.055 61.7032 104.256C61.5262 104.346 61.3607 104.458 61.21 104.587Z" fill="#263238"/>
<path d="M57.3423 125.994C57.4226 126.033 57.5078 126.061 57.5955 126.077L58.3375 126.265L61.0702 126.898C64.0827 127.53 67.0608 128.317 69.9926 129.255C72.9125 130.236 75.7078 131.554 78.3214 133.184C79.3167 133.817 80.0937 134.376 80.6175 134.782C80.88 135.002 81.1555 135.206 81.4425 135.393C81.4425 135.393 81.3858 135.318 81.2592 135.196C81.1326 135.074 80.9449 134.899 80.6873 134.69C79.9701 134.085 79.218 133.522 78.4349 133.005C75.836 131.318 73.0328 129.968 70.093 128.989C67.1506 128.042 64.1517 127.281 61.1138 126.71L58.3594 126.138C58.0244 126.065 57.6844 126.017 57.3423 125.994Z" fill="#263238"/>
<path d="M43.4476 131.267C43.5262 131.267 44.0151 128.4 44.5389 124.833C45.0627 121.267 45.4119 118.364 45.3334 118.351C45.2548 118.338 44.7659 121.223 44.2421 124.79C43.7182 128.356 43.3647 131.259 43.4476 131.267Z" fill="#263238"/>
<path d="M28.9771 126.016C29.447 125.529 29.8845 125.011 30.2866 124.466C31.068 123.493 32.1505 122.153 33.3772 120.695C34.6038 119.237 35.7344 117.936 36.5594 116.998C37.0316 116.512 37.4692 115.995 37.8689 115.448C37.7081 115.546 37.5613 115.665 37.4324 115.802C37.1792 116.046 36.8257 116.404 36.3891 116.858C35.5161 117.762 34.3637 119.041 33.1327 120.503C31.9017 121.965 30.8454 123.327 30.1033 124.336C29.7322 124.842 29.4398 125.257 29.2302 125.545C29.1237 125.689 29.0384 125.848 28.9771 126.016Z" fill="#263238"/>
<path d="M67.2688 139.435V146.585H65.479L59.1277 166.643H45.0325L38.8775 146.781L36.4941 146.585V139.435H67.2688Z" fill="#455A64"/>
<path d="M37.686 146.781C37.686 146.864 43.9064 146.934 51.5804 146.934C59.2545 146.934 65.4792 146.864 65.4792 146.781C65.4792 146.698 59.2588 146.633 51.5804 146.633C43.9021 146.633 37.686 146.698 37.686 146.781Z" fill="#263238"/>
<path d="M27.5498 100.794C27.8437 100.901 28.1459 100.982 28.4534 101.039L30.9241 101.637C33.0107 102.152 35.8742 102.946 38.9779 103.976C42.0815 105.006 44.8403 106.128 46.8352 106.98L49.1662 107.997C49.4475 108.137 49.7394 108.256 50.0393 108.35C49.7813 108.174 49.5081 108.02 49.223 107.892C48.6904 107.613 47.9134 107.233 46.9269 106.783C41.8182 104.452 36.4816 102.657 31.0027 101.427C29.955 101.196 29.0994 101.025 28.5058 100.925C28.1913 100.855 27.8715 100.811 27.5498 100.794Z" fill="#263238"/>
<path d="M42.3652 157.921C42.3652 158.004 46.7304 158.07 52.1127 158.07C57.495 158.07 61.8646 158.004 61.8646 157.921C61.8646 157.838 57.4994 157.773 52.1127 157.773C46.7261 157.773 42.3652 157.838 42.3652 157.921Z" fill="#FAFAFA"/>
<path d="M41.8154 156.258C41.8154 156.341 46.4425 156.407 52.1478 156.407C57.8532 156.407 62.4846 156.341 62.4846 156.258C62.4846 156.175 57.8575 156.11 52.1478 156.11C46.4382 156.11 41.8154 156.18 41.8154 156.258Z" fill="#FAFAFA"/>
<path d="M266.003 111.633L236.9 78.9376C235.754 77.6504 234.351 76.6178 232.781 75.9065C231.211 75.1952 229.509 74.8211 227.786 74.8082L131.974 74.1141C130.346 74.102 128.732 74.4127 127.225 75.0282C125.718 75.6438 124.348 76.552 123.194 77.7003C122.039 78.8487 121.125 80.2144 120.502 81.7185C119.879 83.2226 119.56 84.8352 119.564 86.4632L119.726 154.307C119.729 155.927 120.052 157.53 120.676 159.025C121.3 160.52 122.212 161.877 123.361 163.019C124.51 164.161 125.873 165.065 127.372 165.679C128.871 166.294 130.477 166.606 132.096 166.599L227.576 166.198C229.34 166.194 231.082 165.811 232.684 165.075C234.287 164.339 235.713 163.268 236.866 161.933L266.143 127.885C268.094 125.619 269.156 122.722 269.13 119.732C269.105 116.743 267.993 113.864 266.003 111.633ZM249.808 123.419C249.052 125.281 247.76 126.877 246.096 128.005C244.432 129.133 242.472 129.742 240.462 129.755C238.452 129.769 236.483 129.186 234.804 128.08C233.126 126.975 231.813 125.396 231.031 123.545C230.25 121.693 230.035 119.651 230.414 117.677C230.793 115.703 231.749 113.886 233.161 112.455C234.572 111.025 236.377 110.045 238.346 109.64C240.314 109.235 242.359 109.422 244.221 110.179C246.713 111.194 248.701 113.156 249.748 115.635C250.796 118.114 250.817 120.907 249.808 123.402V123.419Z" fill="#047578"/>
<g opacity="0.4">
<path d="M266.003 111.633L236.9 78.9376C235.754 77.6504 234.351 76.6178 232.781 75.9065C231.211 75.1952 229.509 74.8211 227.786 74.8082L131.974 74.1141C130.346 74.102 128.732 74.4127 127.225 75.0282C125.718 75.6438 124.348 76.552 123.194 77.7003C122.039 78.8487 121.125 80.2144 120.502 81.7185C119.879 83.2226 119.56 84.8352 119.564 86.4632L119.726 154.307C119.729 155.927 120.052 157.53 120.676 159.025C121.3 160.52 122.212 161.877 123.361 163.019C124.51 164.161 125.873 165.065 127.372 165.679C128.871 166.294 130.477 166.606 132.096 166.599L227.576 166.198C229.34 166.194 231.082 165.811 232.684 165.075C234.287 164.339 235.713 163.268 236.866 161.933L266.143 127.885C268.094 125.619 269.156 122.722 269.13 119.732C269.105 116.743 267.993 113.864 266.003 111.633ZM249.808 123.419C249.052 125.281 247.76 126.877 246.096 128.005C244.432 129.133 242.472 129.742 240.462 129.755C238.452 129.769 236.483 129.186 234.804 128.08C233.126 126.975 231.813 125.396 231.031 123.545C230.25 121.693 230.035 119.651 230.414 117.677C230.793 115.703 231.749 113.886 233.161 112.455C234.572 111.025 236.377 110.045 238.346 109.64C240.314 109.235 242.359 109.422 244.221 110.179C246.713 111.194 248.701 113.156 249.748 115.635C250.796 118.114 250.817 120.907 249.808 123.402V123.419Z" fill="black"/>
</g>
<path d="M271.045 111.633L241.929 78.9376C240.783 77.6507 239.379 76.6184 237.809 75.9072C236.24 75.1959 234.538 74.8215 232.815 74.8081L137.003 74.114C135.375 74.1013 133.76 74.4116 132.253 75.027C130.746 75.6423 129.375 76.5505 128.221 77.6989C127.067 78.8474 126.152 80.2133 125.529 81.7177C124.906 83.222 124.588 84.835 124.593 86.4631L124.75 154.307C124.754 155.93 125.079 157.537 125.705 159.035C126.332 160.532 127.249 161.891 128.402 163.033C129.556 164.176 130.924 165.079 132.428 165.691C133.931 166.303 135.541 166.611 137.165 166.599L232.64 166.198C234.403 166.193 236.145 165.81 237.748 165.074C239.35 164.338 240.776 163.267 241.929 161.933L271.202 127.884C273.152 125.618 274.211 122.719 274.183 119.729C274.154 116.739 273.039 113.862 271.045 111.633ZM254.855 123.419C254.098 125.281 252.806 126.877 251.142 128.005C249.479 129.133 247.518 129.742 245.508 129.755C243.498 129.769 241.529 129.186 239.851 128.08C238.172 126.975 236.859 125.396 236.077 123.544C235.296 121.693 235.081 119.651 235.46 117.677C235.839 115.703 236.795 113.886 238.207 112.455C239.619 111.025 241.423 110.045 243.392 109.64C245.361 109.234 247.405 109.422 249.267 110.179C251.759 111.194 253.747 113.156 254.795 115.635C255.842 118.114 255.864 120.907 254.855 123.401V123.419Z" fill="#047578"/>
<path d="M156.476 109.359C156.55 101.135 161.618 95.9531 168.725 96.0229C175.831 96.0928 180.733 101.292 180.659 109.581C180.585 117.871 175.578 122.987 168.476 122.921C161.374 122.856 156.397 117.583 156.476 109.359ZM173.688 109.52C173.736 104.282 171.741 101.763 168.672 101.737C165.678 101.706 163.561 104.264 163.513 109.424C163.465 114.584 165.534 117.177 168.528 117.207C171.597 117.233 173.64 114.745 173.688 109.52ZM197.779 96.861L206.073 96.9396L172.309 145.393L164.015 145.315L197.779 96.861ZM189.433 132.686C189.512 124.462 194.575 119.281 201.616 119.346C208.723 119.416 213.691 124.689 213.616 132.909C213.542 141.128 208.474 146.292 201.363 146.218C194.348 146.162 189.359 140.888 189.433 132.686ZM206.575 132.843C206.623 127.688 204.628 125.091 201.56 125.065C198.565 125.034 196.452 127.522 196.404 132.752C196.356 137.981 198.421 140.504 201.416 140.535C204.484 140.544 206.527 137.981 206.571 132.821L206.575 132.843Z" fill="#E7BC20"/>
<path d="M267.858 131.813C268.205 131.998 268.527 132.229 268.814 132.498C269.412 132.974 270.285 133.69 271.389 134.637C272.494 135.585 273.838 136.755 275.349 138.165C276.859 139.574 278.553 141.22 280.303 143.171C282.227 145.286 283.969 147.56 285.511 149.968L286.131 150.959L286.715 151.993C287.124 152.701 287.494 153.429 287.824 154.176C288.559 155.76 288.982 157.47 289.073 159.213C289.101 160.145 288.965 161.075 288.671 161.959C288.365 162.874 287.874 163.716 287.231 164.434C285.91 165.89 284.162 166.89 282.237 167.289C280.285 167.675 278.271 167.627 276.339 167.149C274.399 166.68 272.52 165.987 270.739 165.085C267.239 163.3 264.065 160.939 261.349 158.1C260.055 156.771 258.843 155.362 257.722 153.884C256.628 152.449 255.586 151.021 254.596 149.601C250.668 143.927 247.612 138.47 245.691 133.59C245.211 132.372 244.797 131.202 244.439 130.076C244.264 129.513 244.098 128.963 243.963 128.417C243.814 127.889 243.707 127.351 243.644 126.806C243.492 125.773 243.751 124.722 244.364 123.877C244.893 123.199 245.614 122.697 246.433 122.437C246.772 122.325 247.119 122.245 247.472 122.197C247.783 122.164 248.095 122.156 248.407 122.175C248.895 122.198 249.376 122.303 249.83 122.485C250.105 122.6 250.362 122.758 250.589 122.952C250.738 123.087 250.803 123.161 250.79 123.179C250.777 123.196 250.685 123.148 250.519 123.048C250.279 122.901 250.021 122.785 249.751 122.703C249.312 122.57 248.856 122.506 248.398 122.511C248.106 122.514 247.814 122.537 247.525 122.581C247.202 122.643 246.885 122.734 246.578 122.851C245.864 123.114 245.244 123.582 244.797 124.196C244.297 124.939 244.109 125.848 244.273 126.728C244.345 127.241 244.459 127.748 244.613 128.242C244.757 128.766 244.936 129.299 245.12 129.849C245.501 130.949 245.937 132.095 246.429 133.289C248.407 138.047 251.497 143.42 255.443 149.003C256.433 150.4 257.476 151.807 258.573 153.224C259.677 154.663 260.868 156.034 262.139 157.328C264.777 160.068 267.851 162.352 271.237 164.085C272.944 164.949 274.746 165.614 276.606 166.067C278.377 166.511 280.225 166.563 282.019 166.22C283.715 165.874 285.261 165.003 286.436 163.731C287.526 162.5 288.101 160.896 288.043 159.253C287.96 157.635 287.568 156.048 286.89 154.578C286.58 153.855 286.232 153.15 285.847 152.465L285.301 151.457L284.707 150.47C283.223 148.083 281.546 145.821 279.692 143.708C278.007 141.753 276.37 140.076 274.89 138.627C273.41 137.178 272.131 135.964 271.071 134.974L268.661 132.686C268.358 132.429 268.088 132.136 267.858 131.813Z" fill="#263238"/>
<path d="M222.386 64.061C222.325 64.061 221.103 55.527 219.653 44.9807C218.204 34.4344 217.082 25.8786 217.148 25.8699C217.213 25.8611 218.431 34.4038 219.88 44.9501C221.33 55.4964 222.451 64.0522 222.386 64.061Z" fill="#263238"/>
<path d="M258.377 17.3403C258.369 17.3854 258.356 17.4294 258.338 17.4713L258.198 17.8511L257.644 19.3047L255.566 24.6389C253.82 29.1438 251.428 35.3773 248.887 42.3049C246.347 49.2324 244.142 55.5314 242.571 60.1018C241.789 62.376 241.156 64.2225 240.715 65.519C240.497 66.1432 240.327 66.6365 240.205 66.99C240.148 67.1472 240.1 67.2694 240.065 67.3698C240.052 67.4137 240.035 67.4562 240.013 67.4964C240.016 67.45 240.026 67.4044 240.043 67.3611L240.161 66.9726C240.27 66.619 240.427 66.0995 240.628 65.4884C241.039 64.2007 241.65 62.3411 242.418 60.0494C243.954 55.4659 246.137 49.1364 248.678 42.2263C251.218 35.3162 253.623 29.0696 255.413 24.5778C256.286 22.3341 257.046 20.5182 257.565 19.2697L258.163 17.8336C258.229 17.6808 258.285 17.5586 258.325 17.4626L258.377 17.3403Z" fill="#263238"/>
<path d="M284.167 50.9349C284.206 50.9829 277.959 55.8763 270.198 61.8479C262.437 67.8194 256.142 72.6473 256.103 72.595C256.063 72.5426 262.314 67.6536 270.071 61.682C277.828 55.7104 284.132 50.8825 284.167 50.9349Z" fill="#263238"/>
<path d="M207.234 65.6543C207.182 65.6936 204.768 62.5986 201.839 58.7747C198.91 54.9508 196.57 51.7904 196.601 51.7599C196.631 51.7293 199.067 54.8155 201.996 58.6394C204.925 62.4633 207.283 65.615 207.234 65.6543Z" fill="#263238"/>
<path d="M281.216 89.7152C281.216 89.7763 277.37 88.7112 272.664 87.3405C267.959 85.9699 264.161 84.8087 264.178 84.7476C264.196 84.6865 268.024 85.7516 272.73 87.1223C277.435 88.493 281.237 89.6541 281.216 89.7152Z" fill="#263238"/>
<path d="M226.21 89.5756L229.047 87.943L230.553 85.0358L232.19 87.8731L235.097 89.3835L232.26 91.0161L230.75 93.9233L229.117 91.0859L226.21 89.5756Z" fill="white"/>
<path d="M210.871 85.0706L211.866 84.4988L212.394 83.4817L212.966 84.4726L213.983 85.0008L212.988 85.5726L212.46 86.5897L211.888 85.5988L210.871 85.0706Z" fill="white"/>
<path d="M220.666 105.12L222.587 104.016L223.608 102.047L224.713 103.968L226.681 104.989L224.761 106.093L223.739 108.062L222.635 106.141L220.666 105.12Z" fill="white"/>
<path d="M301.213 166.643C301.213 166.704 233.879 166.757 150.84 166.757C67.8013 166.757 0.459473 166.704 0.459473 166.643C0.459473 166.582 67.7751 166.53 150.84 166.53C233.906 166.53 301.213 166.578 301.213 166.643Z" fill="#263238"/>
<path d="M88.1474 158.904C88.1474 158.904 69.9402 163.95 69.185 164.207C68.0894 164.591 68.2727 168.616 69.9839 168.572C70.7914 168.542 83.983 169.061 85.6506 168.957C87.3181 168.852 91.8055 167.084 91.8055 167.084L88.1474 158.904Z" fill="#455A64"/>
<path d="M80.5519 165.862C80.4603 165.862 80.3381 164.91 79.7488 163.906C79.1595 162.902 78.4043 162.3 78.461 162.23C78.5178 162.16 79.3995 162.666 80.015 163.753C80.6305 164.84 80.6305 165.862 80.5519 165.862Z" fill="#263238"/>
<path d="M82.4552 164.989C82.3636 164.989 82.1802 164.142 81.6957 163.19C81.2112 162.239 80.6349 161.571 80.7004 161.51C80.7659 161.448 81.4643 162.046 81.9663 163.055C82.4683 164.063 82.5338 164.989 82.4552 164.989Z" fill="#263238"/>
<path d="M84.2362 164.521C84.1445 164.521 84.2144 163.605 83.7997 162.592C83.385 161.579 82.7389 160.955 82.8044 160.89C82.8699 160.824 83.6775 161.383 84.0834 162.483C84.4894 163.583 84.3104 164.552 84.2362 164.521Z" fill="#263238"/>
<path d="M83.9085 162.164C83.749 161.732 83.6821 161.271 83.712 160.811C83.7196 160.306 83.7855 159.804 83.9085 159.314C83.9767 159.025 84.0672 158.742 84.1791 158.467C84.2359 158.298 84.3369 158.147 84.4716 158.031C84.5625 157.961 84.675 157.926 84.7893 157.932C84.9035 157.937 85.0121 157.983 85.0958 158.061C85.2362 158.198 85.323 158.381 85.3403 158.576C85.3509 158.736 85.3509 158.896 85.3403 159.056C85.3353 159.351 85.2972 159.644 85.2268 159.929C85.1054 160.417 84.9174 160.886 84.668 161.322C84.4651 161.735 84.1867 162.107 83.8474 162.418C83.8081 162.391 84.1136 161.981 84.476 161.221C84.6892 160.792 84.8489 160.337 84.9518 159.868C85.0115 159.594 85.0422 159.315 85.0434 159.035C85.0434 158.755 85.0434 158.406 84.8732 158.271C84.8437 158.237 84.8022 158.216 84.7575 158.212C84.7128 158.208 84.6683 158.221 84.6331 158.249C84.5403 158.336 84.4712 158.446 84.4323 158.567C84.3225 158.829 84.2307 159.097 84.1573 159.371C84.0293 159.836 83.9488 160.312 83.9172 160.794C83.8779 161.641 83.9609 162.16 83.9085 162.164Z" fill="#263238"/>
<path d="M83.9351 161.981C84.3074 161.825 84.7112 161.76 85.1137 161.789C85.5552 161.788 85.9952 161.842 86.4232 161.95C86.6843 162.005 86.9358 162.097 87.1697 162.225C87.3194 162.3 87.4406 162.421 87.5147 162.571C87.5888 162.721 87.6118 162.891 87.58 163.055C87.5382 163.212 87.455 163.355 87.3391 163.47C87.2232 163.584 87.0788 163.666 86.9208 163.705C86.653 163.773 86.3724 163.773 86.1046 163.705C85.2915 163.466 84.5787 162.968 84.0747 162.287C84.413 162.483 84.7369 162.703 85.0438 162.946C85.3824 163.176 85.7616 163.341 86.1613 163.43C86.3835 163.485 86.6157 163.485 86.8379 163.43C86.9423 163.402 87.0374 163.346 87.1139 163.27C87.1904 163.193 87.2458 163.098 87.2744 162.994C87.2921 162.891 87.2751 162.786 87.2261 162.694C87.1771 162.602 87.0988 162.53 87.0038 162.487C86.7952 162.372 86.572 162.285 86.3403 162.23C85.94 162.116 85.5289 162.044 85.1137 162.016C84.389 161.955 83.9438 162.029 83.9351 161.981Z" fill="#263238"/>
<path d="M77.754 166.054C77.6623 166.054 77.754 165.264 77.3917 164.412C77.0294 163.561 76.4444 163.055 76.5186 162.985C76.5928 162.915 77.3087 163.343 77.6929 164.295C78.077 165.246 77.8282 166.089 77.754 166.054Z" fill="#263238"/>
<path d="M90.4564 166.896C90.2312 167.028 89.9945 167.139 89.7492 167.228C89.0873 167.482 88.4092 167.692 87.7194 167.856C85.4355 168.358 83.0989 168.58 80.7613 168.516C78.0287 168.485 75.5667 168.363 73.777 168.289L71.6642 168.179C71.4046 168.178 71.1457 168.15 70.8916 168.097C71.1536 168.049 71.4201 168.032 71.6861 168.044H73.8032L80.7875 168.179C83.1044 168.239 85.4209 168.05 87.6976 167.616C89.4349 167.289 90.4564 166.839 90.4564 166.896Z" fill="#263238"/>
<path d="M91.0108 167.311C90.5452 167.128 90.0891 166.921 89.6445 166.691C88.5705 166.184 87.3763 165.986 86.196 166.119C84.821 166.329 83.8476 167.254 83.2146 167.891C82.8908 168.275 82.5392 168.634 82.1626 168.965C82.4056 168.521 82.7066 168.112 83.0575 167.747C83.4154 167.325 83.8212 166.946 84.2666 166.617C84.821 166.204 85.4661 165.93 86.148 165.818C87.3857 165.669 88.6392 165.907 89.7362 166.499C90.2011 166.701 90.6312 166.975 91.0108 167.311Z" fill="#263238"/>
<path d="M72.7253 168.101C72.801 167.866 72.8899 167.636 72.9916 167.411C73.1829 166.861 73.228 166.271 73.1224 165.699C73.0167 165.127 72.7641 164.591 72.3892 164.146C72.1011 163.797 71.8697 163.631 71.8916 163.596C71.9134 163.561 72.1797 163.692 72.5158 164.033C72.9568 164.476 73.2536 165.043 73.3673 165.658C73.481 166.274 73.4063 166.909 73.1531 167.481C72.9567 167.909 72.7471 168.118 72.7253 168.101Z" fill="#263238"/>
<path d="M107.167 159.445C107.167 159.445 125.867 162.287 126.622 162.457C127.762 162.71 128.054 166.726 126.352 166.866C125.544 166.931 112.505 169.018 110.838 169.114C109.17 169.21 103.941 167.839 103.941 167.839L107.167 159.445Z" fill="#455A64"/>
<path d="M115.535 165.447C115.627 165.447 115.635 164.478 116.098 163.408C116.561 162.339 117.246 161.662 117.181 161.588C117.115 161.514 116.307 162.142 115.819 163.29C115.33 164.439 115.461 165.464 115.535 165.447Z" fill="#263238"/>
<path d="M113.544 164.818C113.636 164.818 113.715 163.945 114.086 162.941C114.457 161.937 114.959 161.195 114.871 161.156C114.784 161.117 114.177 161.776 113.797 162.837C113.418 163.897 113.466 164.823 113.544 164.818Z" fill="#263238"/>
<path d="M111.719 164.552C111.807 164.552 111.632 163.64 111.912 162.588C112.191 161.536 112.785 160.842 112.697 160.776C112.61 160.711 111.907 161.37 111.619 162.522C111.331 163.675 111.65 164.591 111.719 164.552Z" fill="#263238"/>
<path d="M111.759 162.177C111.87 161.73 111.882 161.264 111.794 160.811C111.731 160.314 111.61 159.826 111.431 159.358C111.328 159.078 111.204 158.807 111.06 158.546C110.985 158.382 110.868 158.242 110.72 158.14C110.621 158.081 110.504 158.06 110.391 158.079C110.277 158.098 110.174 158.157 110.1 158.244C109.977 158.397 109.914 158.59 109.921 158.786C109.921 158.946 109.933 159.107 109.956 159.266C109.995 159.564 110.068 159.857 110.174 160.139C110.353 160.606 110.596 161.047 110.894 161.449C111.145 161.835 111.465 162.172 111.837 162.444C111.877 162.409 111.523 162.007 111.073 161.331C110.809 160.921 110.595 160.482 110.436 160.021C110.346 159.756 110.285 159.483 110.253 159.205C110.227 158.925 110.183 158.581 110.327 158.428C110.353 158.391 110.391 158.366 110.435 158.357C110.479 158.348 110.525 158.356 110.563 158.38C110.666 158.455 110.749 158.556 110.803 158.672C110.942 158.918 111.065 159.173 111.169 159.436C111.351 159.883 111.489 160.346 111.58 160.82C111.728 161.658 111.711 162.177 111.759 162.177Z" fill="#263238"/>
<path d="M111.715 161.998C111.333 161.885 110.929 161.862 110.536 161.933C110.104 161.985 109.679 162.089 109.271 162.243C109.019 162.33 108.781 162.452 108.563 162.605C108.424 162.697 108.318 162.832 108.262 162.99C108.206 163.147 108.203 163.319 108.253 163.478C108.314 163.63 108.414 163.763 108.543 163.863C108.672 163.963 108.825 164.028 108.987 164.05C109.262 164.083 109.54 164.048 109.799 163.95C110.576 163.613 111.224 163.034 111.645 162.3C111.336 162.535 111.045 162.792 110.772 163.068C110.464 163.338 110.107 163.547 109.72 163.683C109.505 163.759 109.274 163.783 109.048 163.753C108.94 163.738 108.839 163.696 108.752 163.63C108.666 163.564 108.598 163.477 108.555 163.378C108.526 163.277 108.531 163.17 108.568 163.072C108.606 162.974 108.675 162.892 108.764 162.837C108.958 162.7 109.167 162.589 109.388 162.505C109.773 162.343 110.174 162.223 110.584 162.147C111.261 162.029 111.715 162.046 111.715 161.998Z" fill="#263238"/>
<path d="M118.337 165.307C118.429 165.285 118.245 164.526 118.498 163.631C118.752 162.736 119.284 162.173 119.219 162.112C119.153 162.051 118.472 162.548 118.206 163.552C117.94 164.556 118.271 165.351 118.337 165.307Z" fill="#263238"/>
<path d="M105.809 167.656C106.047 167.762 106.296 167.844 106.551 167.9C107.237 168.076 107.934 168.204 108.638 168.284C110.964 168.511 113.309 168.454 115.622 168.114C118.333 167.756 120.76 167.341 122.523 167.058L124.61 166.695C124.867 166.665 125.12 166.606 125.365 166.521C125.106 166.512 124.847 166.531 124.593 166.578L122.493 166.844L115.583 167.809C113.289 168.142 110.967 168.23 108.655 168.07C106.887 167.922 105.822 167.608 105.809 167.656Z" fill="#263238"/>
<path d="M105.325 168.132C105.355 168.171 105.814 167.822 106.608 167.355C107.613 166.719 108.776 166.381 109.965 166.377C111.353 166.42 112.427 167.224 113.134 167.782C113.503 168.122 113.893 168.437 114.304 168.725C114.013 168.311 113.666 167.94 113.274 167.621C112.868 167.243 112.42 166.913 111.938 166.639C111.337 166.297 110.664 166.102 109.974 166.071C108.724 166.068 107.504 166.452 106.481 167.171C106.048 167.429 105.658 167.753 105.325 168.132Z" fill="#263238"/>
<path d="M165.324 82.6131C165.209 82.3769 165.016 82.1874 164.778 82.0761L165.215 81.2031C165.185 80.8901 165.098 80.5852 164.957 80.3039C164.739 79.9285 163.975 79.959 163.975 79.959L164.093 79.7102C164.173 79.534 164.206 79.3403 164.189 79.1476C164.172 78.9549 164.106 78.7699 163.997 78.6102C163.962 78.5622 163.927 78.5141 163.883 78.4618C163.619 78.2048 163.282 78.0343 162.919 77.9729C162.919 77.9729 163.355 77.1347 163.159 76.7812C162.955 76.4904 162.67 76.2659 162.339 76.1356C162.009 76.0052 161.647 75.9747 161.299 76.0478C160.135 76.5053 159.004 77.045 157.916 77.6629C157.815 77.7181 157.702 77.7506 157.587 77.7582C157.472 77.7657 157.356 77.7482 157.248 77.7067C157.14 77.6652 157.043 77.6007 156.962 77.5178C156.881 77.4349 156.82 77.3355 156.781 77.2264C156.393 76.1115 155.835 75.0632 155.127 74.1184C154.306 73.1319 153.538 73.2104 153.088 73.385C153.038 73.4047 152.993 73.435 152.955 73.474C152.918 73.513 152.889 73.5597 152.872 73.6109C152.854 73.662 152.848 73.7164 152.854 73.7701C152.86 73.8238 152.877 73.8757 152.905 73.922C153.346 74.6241 153.742 75.353 154.092 76.1046C154.306 76.6764 154.529 80.9805 154.529 80.9805L153.35 83.2242L141.464 101.999C141.464 101.999 123.501 89.8942 123.567 89.593L122.72 103.474L136.252 112.467C137.411 113.236 138.725 113.743 140.101 113.951C141.476 114.159 142.881 114.063 144.216 113.671C145.551 113.278 146.784 112.598 147.828 111.678C148.872 110.758 149.702 109.621 150.26 108.346L159.37 88.5716L160.474 86.9564L164.765 84.2064C164.765 84.2064 165.477 82.9754 165.324 82.6131Z" fill="#FFBE9D"/>
<path d="M163.355 77.9772C163.355 77.9772 163.329 78.0078 163.272 78.0558L163.015 78.2653C162.775 78.4487 162.447 78.7019 162.055 79.0118L160.618 80.1031C160.348 80.3039 160.077 80.5396 159.745 80.7317C159.581 80.8456 159.392 80.9188 159.194 80.9454C158.996 80.9719 158.794 80.9511 158.606 80.8845C158.412 80.797 158.257 80.6417 158.17 80.4479C158.092 80.2678 158.057 80.0719 158.069 79.8761C158.102 79.5107 158.256 79.1666 158.506 78.8983C158.727 78.6614 158.966 78.4425 159.222 78.2435L159.868 77.7066L160.81 76.934L161.068 76.7288C161.129 76.6851 161.16 76.6589 161.164 76.6633L161.081 76.7463L160.837 76.9689L159.92 77.7633L159.283 78.309C159.033 78.5085 158.799 78.7275 158.584 78.9638C158.339 79.2108 158.185 79.5342 158.148 79.8805C158.125 80.0596 158.157 80.2415 158.238 80.4025C158.32 80.5636 158.448 80.6965 158.606 80.7841C158.776 80.8537 158.963 80.8719 159.143 80.8364C159.322 80.8017 159.494 80.7352 159.649 80.64C159.955 80.4523 160.234 80.2035 160.522 80.0245L161.967 78.9463L162.949 78.2304L163.22 78.0383L163.355 77.9772Z" fill="#EB996E"/>
<path d="M164.307 79.9983C164.246 80.061 164.179 80.1167 164.106 80.1642C163.975 80.2646 163.778 80.4086 163.534 80.5789C163.049 80.915 162.364 81.369 161.583 81.8273C161.386 81.9408 161.199 82.0587 160.998 82.1503C160.803 82.242 160.588 82.2826 160.374 82.2682C160.192 82.2464 160.019 82.1738 159.877 82.0588C159.734 81.9438 159.626 81.791 159.566 81.6178C159.493 81.384 159.511 81.131 159.618 80.9106C159.649 80.853 159.686 80.7989 159.728 80.7491C159.758 80.7142 159.776 80.7011 159.78 80.7011C159.784 80.7011 159.723 80.7797 159.658 80.9281C159.579 81.1421 159.579 81.3775 159.658 81.5916C159.714 81.7484 159.813 81.8859 159.945 81.988C160.076 82.0901 160.234 82.1525 160.4 82.1678C160.597 82.1769 160.794 82.1364 160.972 82.0499C161.168 81.9551 161.358 81.8502 161.543 81.7356C162.325 81.2773 163.015 80.8364 163.512 80.5134L164.097 80.1292C164.163 80.08 164.233 80.0362 164.307 79.9983Z" fill="#EB996E"/>
<path d="M164.861 81.9714C164.797 82.0179 164.729 82.0574 164.656 82.0893L164.076 82.3818C163.582 82.6262 162.897 82.9536 162.142 83.3116C161.958 83.404 161.768 83.4856 161.574 83.556C161.386 83.6257 161.182 83.6423 160.985 83.604C160.894 83.5869 160.807 83.5499 160.732 83.4955C160.656 83.4412 160.594 83.3709 160.549 83.2897C160.476 83.1471 160.451 82.9847 160.479 82.827C160.527 82.6057 160.648 82.4071 160.824 82.2639C160.941 82.1635 161.02 82.1242 161.024 82.1329C161.029 82.1417 160.959 82.1897 160.85 82.2945C160.698 82.4417 160.596 82.6323 160.557 82.8401C160.536 82.9794 160.56 83.122 160.627 83.2461C160.668 83.3144 160.723 83.3732 160.789 83.4184C160.854 83.4636 160.929 83.4941 161.007 83.508C161.186 83.5399 161.37 83.5218 161.54 83.4556C161.729 83.3854 161.914 83.3037 162.094 83.2111C162.853 82.8576 163.539 82.5389 164.041 82.3119L164.639 82.0544C164.708 82.0158 164.784 81.9879 164.861 81.9714Z" fill="#EB996E"/>
<path d="M165.172 83.796C164.95 83.8732 164.722 83.933 164.491 83.975C164.054 84.071 163.478 84.1976 162.827 84.3286L162.352 84.4246C162.202 84.4614 162.048 84.479 161.893 84.477C161.745 84.4768 161.602 84.426 161.487 84.3329C161.437 84.291 161.397 84.2382 161.369 84.1785C161.342 84.1188 161.329 84.0537 161.33 83.9881C161.338 83.8972 161.365 83.8091 161.41 83.7299C161.456 83.6507 161.518 83.5824 161.592 83.5298C161.641 83.4867 161.702 83.4594 161.767 83.4512C161.767 83.4512 161.706 83.4861 161.618 83.5647C161.555 83.6186 161.503 83.6854 161.467 83.7606C161.431 83.8358 161.411 83.9178 161.409 84.0012C161.409 84.0543 161.421 84.1067 161.445 84.1543C161.468 84.202 161.502 84.2437 161.544 84.2762C161.644 84.3523 161.767 84.3923 161.893 84.3897C162.04 84.3872 162.187 84.3682 162.33 84.3329L162.806 84.2325C163.456 84.1016 164.045 83.9881 164.473 83.9095C164.703 83.8553 164.936 83.8174 165.172 83.796Z" fill="#EB996E"/>
<path d="M160.514 82.9229C160.112 82.8423 159.702 82.8014 159.292 82.8007C158.884 82.8387 158.482 82.9192 158.091 83.0408C158.449 82.8136 158.864 82.6925 159.287 82.6916C159.71 82.6539 160.134 82.734 160.514 82.9229Z" fill="#EB996E"/>
<path d="M96.3757 78.8109C96.3757 78.8109 90.3343 73.7167 91.7311 70.2071C93.128 66.6975 97.0086 64.9689 98.9162 58.5738C100.44 53.4753 109.515 43.6361 120.271 51.057C120.271 51.057 123.911 50.4851 125.98 52.1439C128.05 53.8027 128.552 57.1115 129.429 60.931C130.782 66.8197 131.524 71.3464 128.905 74.2274C126.286 77.1085 125.326 77.8811 125.465 81.155C125.649 85.4285 127.534 84.8567 125.902 87.9734L116.883 85.0313L116.787 82.5475L115.875 84.8829L110.637 82.9971L96.3757 78.8109Z" fill="#263238"/>
<path d="M126.413 57.3254C125.828 58.6699 126.308 60.2239 126.849 61.5859C127.391 62.9478 128.05 64.384 127.77 65.8245C127.273 68.3781 124.099 69.8012 123.75 72.3723C123.562 73.7517 124.252 75.1573 123.986 76.5279C123.719 77.8986 122.619 78.8502 121.445 79.5137C120.271 80.1772 118.975 80.6225 117.87 81.3995C117.87 81.3995 115.443 83.39 111.261 80.1117" fill="#263238"/>
<path d="M109.279 53.9861C108.737 53.8605 108.167 53.9427 107.682 54.2167C107.197 54.4906 106.833 54.9364 106.66 55.4659L97.9953 84.2325C96.8735 87.5981 101.108 91.1906 104.718 92.3605C108.367 93.5435 109.105 91.8105 110.261 88.6414C112.2 83.3508 112.881 81.3515 112.881 81.382C112.881 81.4126 117.717 82.2114 120.738 76.5803C122.24 73.7735 123.794 68.8539 124.915 64.7943C125.937 61.1363 125.09 55.9155 121.393 55.0556L109.279 53.9861Z" fill="#FFBE9D"/>
<path d="M121.86 67.7976C121.793 67.9985 121.65 68.1651 121.461 68.2614C121.272 68.3578 121.053 68.3762 120.851 68.3127C120.751 68.2864 120.657 68.2405 120.575 68.1775C120.493 68.1145 120.425 68.0358 120.373 67.9459C120.322 67.8561 120.289 67.7569 120.277 67.6542C120.265 67.5515 120.273 67.4474 120.301 67.348C120.369 67.1477 120.513 66.9818 120.701 66.8856C120.889 66.7894 121.108 66.7705 121.31 66.8329C121.41 66.8591 121.503 66.9051 121.586 66.968C121.668 67.031 121.736 67.1097 121.787 67.1996C121.839 67.2894 121.871 67.3886 121.884 67.4913C121.896 67.594 121.888 67.6981 121.86 67.7976Z" fill="#263238"/>
<path d="M123.056 66.7718C122.93 66.8372 122.497 66.2086 121.672 65.9249C120.847 65.6412 120.101 65.842 120.049 65.711C120.018 65.6499 120.18 65.5015 120.485 65.4011C120.928 65.2789 121.397 65.2957 121.83 65.4491C122.259 65.5983 122.63 65.8794 122.89 66.2523C123.095 66.5142 123.122 66.7281 123.056 66.7718Z" fill="#263238"/>
<path d="M113.688 65.1872C113.621 65.3873 113.479 65.5534 113.292 65.6503C113.104 65.7473 112.886 65.7675 112.684 65.7066C112.584 65.6804 112.49 65.6344 112.408 65.5715C112.326 65.5085 112.258 65.4298 112.206 65.3399C112.155 65.2501 112.122 65.1509 112.11 65.0482C112.098 64.9455 112.106 64.8414 112.134 64.7419C112.201 64.5419 112.344 64.3758 112.531 64.2788C112.718 64.1818 112.936 64.1616 113.138 64.2225C113.238 64.2487 113.332 64.2947 113.414 64.3577C113.496 64.4206 113.565 64.4994 113.616 64.5892C113.667 64.6791 113.7 64.7782 113.713 64.8809C113.725 64.9836 113.717 65.0877 113.688 65.1872Z" fill="#263238"/>
<path d="M114.841 64.288C114.71 64.3579 114.278 63.7249 113.453 63.4412C112.628 63.1574 111.881 63.3582 111.829 63.2273C111.798 63.1662 111.96 63.0221 112.287 62.9217C112.729 62.7972 113.199 62.814 113.632 62.9697C114.061 63.1159 114.433 63.3958 114.692 63.7685C114.876 64.0479 114.902 64.2618 114.841 64.288Z" fill="#263238"/>
<path d="M115.705 71.4381C116.187 71.4515 116.665 71.5264 117.128 71.6607C117.346 71.7131 117.565 71.7393 117.643 71.6083C117.735 71.3968 117.761 71.1625 117.717 70.9361C117.717 70.3599 117.678 69.7531 117.656 69.1202C117.582 66.536 117.608 64.445 117.713 64.4407C117.818 64.4363 117.962 66.5316 118.032 69.1114C118.032 69.7444 118.054 70.3512 118.067 70.9317C118.114 71.2348 118.05 71.5448 117.888 71.8048C117.834 71.8669 117.767 71.9161 117.691 71.9486C117.615 71.9811 117.533 71.9961 117.451 71.9925C117.325 71.9847 117.2 71.9598 117.08 71.9183C116.603 71.8176 116.141 71.6563 115.705 71.4381Z" fill="#263238"/>
<path d="M112.885 81.382C110.06 80.4496 107.549 78.7492 105.635 76.4712C105.635 76.4712 106.224 81.2729 112.392 82.7964L112.885 81.382Z" fill="#EB996E"/>
<path d="M114.666 73.3196C114.579 73.0673 114.428 72.8417 114.229 72.6644C114.029 72.4871 113.788 72.364 113.527 72.3069C113.34 72.2598 113.145 72.251 112.955 72.281C112.764 72.311 112.582 72.3792 112.418 72.4815C112.259 72.5795 112.134 72.7247 112.062 72.8968C111.989 73.0689 111.972 73.2594 112.012 73.4418C112.092 73.6354 112.229 73.8004 112.404 73.9156C112.579 74.0307 112.785 74.0908 112.994 74.0879C113.431 74.0873 113.863 73.9982 114.265 73.8259C114.381 73.7926 114.491 73.7379 114.588 73.6644C114.633 73.629 114.667 73.5814 114.685 73.5271C114.704 73.4729 114.706 73.4145 114.692 73.3589" fill="#EB996E"/>
<path d="M115.452 61.9308C115.325 62.149 114.491 61.874 113.461 61.8042C112.431 61.7343 111.571 61.8522 111.475 61.6208C111.436 61.5073 111.619 61.3153 111.99 61.1537C112.478 60.9536 113.006 60.8742 113.531 60.9224C114.057 60.9572 114.568 61.1174 115.019 61.3895C115.36 61.6077 115.513 61.826 115.452 61.9308Z" fill="#263238"/>
<path d="M124.243 64.0216C124.016 64.1613 123.37 63.7685 122.545 63.524C121.72 63.2796 120.969 63.2185 120.86 62.974C120.817 62.8561 120.983 62.6946 121.341 62.603C121.829 62.5063 122.335 62.5327 122.811 62.6798C123.287 62.8269 123.719 63.09 124.069 63.4454C124.309 63.7161 124.348 63.9474 124.243 64.0216Z" fill="#263238"/>
<path d="M99.187 72.8829C100.811 67.4439 102.436 62.002 104.063 56.5571C104.395 55.4396 104.779 54.2479 105.709 53.5451C106.638 52.8423 107.765 52.803 108.865 52.7812C113.618 52.6824 118.366 53.1513 123.008 54.1781C123.226 55.2825 122.27 56.3345 121.196 56.6968C120.122 57.0591 118.961 56.9282 117.835 56.9412C116.709 56.9543 115.474 57.1551 114.71 57.9889C113.946 58.8227 113.815 60.2413 113.046 61.1668C111.737 62.7557 108.956 62.4196 107.642 64.0172C106.651 65.2264 106.918 66.9943 106.59 68.5221C106.219 70.2682 106.219 70.2682 104.844 72.8087C104.011 74.3715 106.106 77.3573 104.019 81.2292L99.9684 80.0768L101.745 74.0965L99.3354 79.7057L99.187 72.8829Z" fill="#263238"/>
<path d="M113.26 71.3377C113.343 71.3857 113.3 71.604 113.295 71.9183C113.269 72.3072 113.351 72.6959 113.532 73.0411C113.713 73.3864 113.986 73.6746 114.321 73.8739C114.579 74.0485 114.784 74.1358 114.758 74.2318C114.731 74.3279 114.509 74.4108 114.12 74.3191C113.863 74.2509 113.623 74.1299 113.416 73.9639C113.208 73.7978 113.037 73.5903 112.914 73.3547C112.791 73.119 112.718 72.8603 112.7 72.595C112.682 72.3296 112.72 72.0635 112.811 71.8135C112.972 71.4381 113.186 71.2897 113.26 71.3377Z" fill="#263238"/>
<path d="M112.055 58.2159C111.987 58.2692 111.91 58.3119 111.828 58.3425C111.608 58.4499 111.394 58.5694 111.187 58.7005C110.238 59.2891 109.428 60.0754 108.811 61.0058C108.194 61.9361 107.785 62.9887 107.612 64.0915C107.507 64.8694 107.507 65.6577 107.612 66.4356C107.741 67.2847 107.792 68.1439 107.764 69.0023C107.737 69.4499 107.644 69.891 107.489 70.3119C107.326 70.7062 107.132 71.0871 106.909 71.4512C106.459 72.0919 106.147 72.8187 105.992 73.5858C105.908 74.289 105.927 75.0009 106.049 75.6985C106.141 76.3664 106.258 77.0081 106.302 77.5625C106.424 78.4783 106.287 79.4101 105.905 80.2514C105.787 80.4722 105.64 80.6762 105.468 80.8582C105.342 80.9761 105.272 81.0328 105.268 81.0241C105.486 80.7777 105.672 80.5049 105.822 80.2122C106.158 79.3827 106.268 78.4789 106.141 77.593C106.084 77.0256 105.957 76.4101 105.857 75.7422C105.723 75.0225 105.698 74.2868 105.783 73.5596C105.953 71.9532 107.503 70.7746 107.529 69.0111C107.556 68.166 107.508 67.3202 107.385 66.4836C107.276 65.6871 107.276 64.8793 107.385 64.0828C107.6 62.7323 108.171 61.4636 109.039 60.4073C109.618 59.6998 110.324 59.1075 111.121 58.6612C111.335 58.5376 111.559 58.431 111.789 58.3425C111.871 58.2864 111.961 58.2437 112.055 58.2159Z" fill="#263238"/>
<path d="M131.62 82.7614L131.546 82.8225C131.494 82.8575 131.42 82.9186 131.315 82.9797C131.006 83.1614 130.672 83.2967 130.324 83.3813C129.768 83.5194 129.19 83.5402 128.626 83.4424C127.87 83.3224 127.169 82.9735 126.618 82.4428C125.953 81.7926 125.529 80.9349 125.418 80.0114C125.345 79.4992 125.379 78.9775 125.518 78.4792C125.671 77.9555 125.913 77.4622 126.234 77.0212C126.964 76.1306 127.772 75.3067 128.648 74.5592C129.086 74.1523 129.484 73.7035 129.835 73.2191C130.182 72.7125 130.457 72.1601 130.651 71.5778C131.009 70.4124 131.164 69.1943 131.11 67.9765C131.067 66.8365 130.948 65.7006 130.756 64.576C130.444 62.669 129.959 60.7944 129.307 58.9755C128.868 57.7466 128.357 56.5441 127.779 55.3742C127.574 54.9595 127.408 54.6409 127.295 54.427C127.229 54.3275 127.172 54.2223 127.124 54.1127C127.2 54.2116 127.267 54.3168 127.325 54.427C127.452 54.6321 127.631 54.9464 127.849 55.3568C128.462 56.5144 128.997 57.7116 129.451 58.9406C130.13 60.7629 130.636 62.6454 130.961 64.5629C131.162 65.697 131.286 66.8433 131.332 67.994C131.391 69.237 131.233 70.4807 130.865 71.6695C130.667 72.2729 130.383 72.8448 130.023 73.3675C129.661 73.8643 129.251 74.3248 128.801 74.7426C127.933 75.4788 127.131 76.2895 126.404 77.1653C126.094 77.5843 125.859 78.054 125.71 78.5534C125.577 79.0273 125.54 79.523 125.601 80.0114C125.705 80.896 126.103 81.72 126.731 82.3511C127.257 82.8652 127.924 83.2103 128.648 83.342C129.195 83.4469 129.758 83.438 130.302 83.3158C130.767 83.1995 131.212 83.0126 131.62 82.7614Z" fill="#263238"/>
<path d="M94.4858 76.8423C94.9966 76.71 95.474 76.4721 95.8871 76.1438C96.9697 75.1824 97.6365 73.8379 97.7466 72.3941C97.8407 71.4033 97.8669 70.4072 97.8252 69.4127C97.7619 68.2565 97.8515 67.097 98.0915 65.9642C98.2388 65.3508 98.4756 64.7625 98.7943 64.2181C99.1334 63.6425 99.6067 63.1572 100.174 62.8038C101.357 62.0792 102.793 62.1141 104.102 61.6645C104.741 61.4409 105.315 61.0648 105.774 60.5688C106.217 60.0763 106.611 59.5428 106.953 58.9755C107.651 57.8755 108.324 56.7187 109.389 56.0334C109.9 55.7078 110.477 55.4978 111.078 55.4179C111.635 55.3432 112.197 55.3198 112.759 55.3481C113.751 55.4255 114.749 55.4167 115.74 55.3219C117.17 55.1257 118.531 54.5832 119.704 53.7417C120.019 53.5106 120.322 53.2629 120.612 52.9996L120.834 52.7901L120.917 52.7202C120.579 53.1331 120.189 53.5 119.756 53.8115C118.584 54.6924 117.212 55.2671 115.762 55.4834C114.763 55.5873 113.756 55.6049 112.754 55.5358C111.698 55.5358 110.497 55.5358 109.502 56.2124C108.507 56.889 107.839 57.9846 107.141 59.0934C106.792 59.675 106.389 60.2218 105.936 60.726C105.456 61.246 104.856 61.6415 104.19 61.8784C102.845 62.3411 101.413 62.3149 100.309 62.9959C99.2717 63.7003 98.5547 64.786 98.3141 66.0166C98.0717 67.1299 97.9764 68.2702 98.0304 69.4083C98.0682 70.4121 98.0332 71.4173 97.9256 72.416C97.797 73.8913 97.091 75.2562 95.9613 76.2137C95.6484 76.4606 95.2914 76.6458 94.9093 76.7593C94.8102 76.788 94.7096 76.8113 94.6081 76.8292C94.5685 76.8413 94.527 76.8458 94.4858 76.8423Z" fill="#455A64"/>
<path d="M98.8599 58.7616C99.1443 58.8615 99.4363 58.9389 99.7329 58.9929C100.54 59.0914 101.358 58.9566 102.09 58.6044C103.158 58.0426 104.114 57.2895 104.91 56.3825C105.39 55.8936 105.892 55.3698 106.46 54.8766C107.042 54.3511 107.707 53.9263 108.428 53.6194C109.162 53.3331 109.942 53.1851 110.729 53.1829C111.451 53.181 112.172 53.2204 112.89 53.3007C113.571 53.3662 114.199 53.436 114.819 53.4404C115.379 53.4496 115.939 53.4043 116.491 53.3051C117.291 53.1796 118.044 52.8453 118.673 52.336C118.89 52.1331 119.095 51.9189 119.289 51.6943C119.257 51.7654 119.218 51.8328 119.171 51.8951C119.12 51.9752 119.064 52.0511 119.001 52.1221C118.919 52.2228 118.828 52.3163 118.73 52.4015C118.101 52.953 117.333 53.3201 116.508 53.4622C115.948 53.5744 115.378 53.63 114.806 53.6281C114.19 53.6281 113.54 53.567 112.855 53.5103C112.146 53.4348 111.433 53.3998 110.72 53.4055C109.961 53.4045 109.207 53.5436 108.498 53.8158C107.053 54.4139 106.014 55.5619 105.045 56.5179C104.228 57.4356 103.243 58.1883 102.142 58.7354C101.382 59.0872 100.534 59.2028 99.7067 59.0671C99.4839 59.025 99.267 58.9561 99.0607 58.862C98.9906 58.8352 98.9233 58.8016 98.8599 58.7616Z" fill="#455A64"/>
<path d="M130.442 71.0016C130.55 70.7342 130.622 70.4539 130.656 70.1678C130.696 69.3849 130.479 68.6105 130.036 67.9634C129.53 67.0903 128.591 66.357 127.64 65.4272C127.127 64.942 126.698 64.3756 126.37 63.751C126.051 63.065 125.867 62.3239 125.828 61.5684C125.728 60.0187 125.994 58.5695 125.959 57.2556C126.009 56.0936 125.672 54.9479 124.999 53.9991C124.529 53.3723 123.848 52.9366 123.083 52.7725C122.793 52.7309 122.5 52.7236 122.209 52.7507C122.28 52.719 122.355 52.6983 122.432 52.6896C122.648 52.66 122.867 52.66 123.083 52.6896C123.888 52.8246 124.612 53.2579 125.112 53.9031C125.789 54.6845 126.138 55.9242 126.156 57.2556C126.173 58.5869 125.942 60.0449 126.042 61.5553C126.077 62.286 126.252 63.0032 126.557 63.668C126.871 64.2742 127.282 64.8244 127.775 65.2962C128.701 66.2217 129.657 66.9987 130.158 67.9154C130.606 68.5945 130.808 69.4062 130.73 70.2158C130.703 70.4323 130.641 70.6429 130.547 70.84C130.519 70.898 130.484 70.9522 130.442 71.0016Z" fill="#455A64"/>
<path d="M91.8103 73.6164C91.7141 73.5712 91.6208 73.5202 91.5309 73.4636C91.2778 73.2927 91.05 73.087 90.8543 72.8525C90.4938 72.4128 90.2322 71.9005 90.0876 71.3506C89.943 70.8007 89.9186 70.2261 90.0162 69.6659C90.0866 69.2931 90.2116 68.9327 90.3872 68.5964C90.5961 68.2438 90.8549 67.9233 91.1555 67.6448C91.8449 67.0779 92.6087 66.6079 93.4254 66.2479C94.3132 65.8684 95.133 65.3465 95.8525 64.7027C96.5475 63.9383 97.0226 63.0001 97.2275 61.9875C97.4894 60.953 97.664 59.9053 98.0089 58.9319C98.3321 58.0012 98.7581 57.1096 99.2791 56.2735C100.154 54.8544 101.278 53.6049 102.597 52.5849C103.482 51.8973 104.454 51.328 105.486 50.8912C105.764 50.7691 106.048 50.6627 106.338 50.5725C106.436 50.5319 106.538 50.5026 106.643 50.4852C106.643 50.5114 106.233 50.6424 105.521 50.9741C104.511 51.4367 103.562 52.0233 102.697 52.7202C101.409 53.7432 100.313 54.9861 99.4581 56.3913C98.9504 57.2158 98.536 58.0943 98.2228 59.0105C97.891 59.9621 97.7164 60.9966 97.4458 62.0661C97.2328 63.118 96.7361 64.0917 96.0096 64.8816C95.2724 65.54 94.4318 66.0724 93.5215 66.4575C92.7182 66.8052 91.965 67.2588 91.2821 67.8063C90.9941 68.07 90.7443 68.3727 90.54 68.7055C90.3681 69.023 90.2446 69.3643 90.1733 69.7183C90.0648 70.3333 90.0991 70.9651 90.2737 71.5647C90.4076 72.0196 90.6268 72.4448 90.9198 72.8176C91.1811 73.1209 91.4804 73.3894 91.8103 73.6164Z" fill="#263238"/>
<path d="M131.673 71.4075C131.651 71.4075 131.856 71.198 132.136 70.7833C132.521 70.1967 132.785 69.5393 132.913 68.8495C133.095 67.8261 133.058 66.7756 132.804 65.7677C132.464 64.5375 131.937 63.3669 131.241 62.2974C130.521 61.1406 129.744 60.093 129.089 59.1021C128.495 58.2294 127.98 57.3062 127.548 56.3433C127.258 55.6909 127.045 55.0067 126.915 54.3047C126.881 54.1141 126.858 53.9217 126.845 53.7285C126.835 53.6619 126.835 53.5943 126.845 53.5277C126.845 53.5277 126.897 53.8027 127.007 54.2872C127.165 54.9785 127.395 55.6514 127.692 56.2952C128.143 57.2377 128.668 58.1427 129.263 59.0017C129.923 59.9838 130.708 61.0271 131.446 62.197C132.155 63.2865 132.687 64.4813 133.022 65.7372C133.272 66.7751 133.293 67.8551 133.083 68.9019C132.934 69.6071 132.637 70.2724 132.21 70.8532C132.095 71.0094 131.966 71.1554 131.826 71.2897C131.78 71.3355 131.729 71.3752 131.673 71.4075Z" fill="#263238"/>
<path d="M86.3314 132.25L82.7476 138.487C82.7476 138.487 64.9332 131.97 54.5048 133.869C50.5368 134.589 46.2939 143.586 52.0734 149.366C57.7089 155.001 67.7881 162.972 86.7025 165.552C87.1739 165.613 94.9221 167.276 94.442 167.219C93.9618 167.162 105.303 168.965 105.303 168.965L107.965 158.899L129.088 162.212C141.538 161.365 147.632 148.052 140.132 143.765C133.148 139.771 119.991 139.448 119.991 139.448L115.225 131.975L86.3314 132.25Z" fill="#263238"/>
<path d="M105.735 169.354C105.788 169.013 105.94 168.097 106.246 166.215C106.416 165.211 106.621 163.989 106.888 162.583C107.023 161.876 107.171 161.13 107.35 160.34C107.442 159.942 107.538 159.541 107.656 159.126C107.713 158.921 107.774 158.716 107.848 158.506C107.915 158.281 108.025 158.07 108.171 157.886L108.202 158.039C103.705 156.441 98.083 154.333 92.094 151.806C88.4098 150.239 84.9351 148.658 81.8751 147.004C80.4157 146.243 79.015 145.375 77.6845 144.407C76.4448 143.49 75.336 142.573 74.2971 141.788C72.2455 140.164 70.3684 139.116 68.9847 138.671C68.6799 138.563 68.3695 138.471 68.0549 138.396C67.8269 138.332 67.5951 138.282 67.3608 138.247L66.9243 138.169L66.7759 138.134C66.8266 138.128 66.8779 138.128 66.9287 138.134L67.3652 138.191C67.6036 138.216 67.8399 138.258 68.0723 138.317C68.3916 138.384 68.7064 138.47 69.0152 138.575C69.8659 138.85 70.6852 139.215 71.4597 139.662C72.4842 140.254 73.4659 140.918 74.3975 141.648C75.4452 142.438 76.5539 143.346 77.798 144.267C79.1251 145.225 80.5214 146.083 81.9755 146.834C85.0311 148.466 88.5014 150.042 92.1813 151.605C98.166 154.128 103.78 156.254 108.263 157.873L108.389 157.921L108.293 158.026C108.171 158.192 108.078 158.378 108.018 158.576C107.944 158.777 107.883 158.982 107.822 159.183C107.704 159.589 107.604 159.995 107.512 160.383C107.329 161.169 107.171 161.915 107.032 162.618C106.752 164.024 106.534 165.237 106.351 166.241C106.167 167.245 106.019 168.009 105.914 168.555C105.862 168.821 105.823 169.026 105.788 169.162C105.774 169.227 105.757 169.291 105.735 169.354Z" fill="#455A64"/>
<path d="M136.038 144.987H135.92L135.593 144.935C135.305 144.896 134.886 144.791 134.331 144.734C132.779 144.53 131.21 144.474 129.647 144.568C127.328 144.717 125.029 145.098 122.785 145.703C121.519 146.039 120.201 146.441 118.857 146.908C117.512 147.375 116.133 147.912 114.723 148.475C113.347 149.021 111.941 149.486 110.51 149.867C109.127 150.247 107.778 150.544 106.486 150.793C103.902 151.299 101.549 151.609 99.5756 151.849C97.6026 152.089 96.0006 152.251 94.8962 152.364L93.6215 152.491L93.2898 152.517C93.2522 152.523 93.2139 152.523 93.1763 152.517H93.2854L93.6172 152.469L94.8831 152.299L99.5538 151.714C101.527 151.452 103.871 151.125 106.442 150.61C107.73 150.356 109.061 150.055 110.449 149.671C111.871 149.289 113.27 148.827 114.64 148.287C116.046 147.724 117.429 147.183 118.787 146.72C120.144 146.257 121.463 145.847 122.737 145.52C124.996 144.921 127.31 144.557 129.643 144.433C131.216 144.351 132.792 144.43 134.349 144.669C134.903 144.738 135.318 144.861 135.606 144.913L135.933 144.987C135.968 144.983 136.003 144.983 136.038 144.987Z" fill="#455A64"/>
<path d="M103.491 141.364C103.491 141.513 102.548 141.753 100.964 141.901C96.8262 142.24 92.6619 141.795 88.6888 140.592C87.1741 140.111 86.288 139.671 86.3316 139.526C86.432 139.212 90.173 140.207 94.8874 140.696C99.6018 141.185 103.461 141.032 103.491 141.364Z" fill="#263238"/>
<path d="M120.192 139.596C119.964 139.676 119.731 139.739 119.494 139.784C119.218 139.84 118.946 139.909 118.677 139.993C118.363 140.085 118.001 140.181 117.612 140.321C116.694 140.628 115.794 140.985 114.915 141.39C113.928 141.862 112.863 142.42 111.776 143.067C109.935 144.19 108.169 145.432 106.49 146.786C105.844 147.301 105.324 147.729 104.971 148.025C104.793 148.187 104.602 148.333 104.399 148.462C104.556 148.279 104.727 148.108 104.91 147.951C105.25 147.633 105.752 147.187 106.389 146.642C108.047 145.243 109.81 143.975 111.663 142.848C112.687 142.236 113.744 141.68 114.827 141.181C115.717 140.778 116.631 140.433 117.564 140.146C117.957 140.015 118.324 139.928 118.647 139.849C118.92 139.775 119.197 139.717 119.476 139.675C119.712 139.628 119.952 139.602 120.192 139.596Z" fill="#455A64"/>
<path d="M100.388 148.471C99.9562 148.406 99.5351 148.286 99.1347 148.113C98.1574 147.739 97.2028 147.31 96.2755 146.825L93.5124 145.371C93.1193 145.19 92.7387 144.983 92.373 144.752C92.7928 144.868 93.1994 145.028 93.5866 145.227C94.3156 145.559 95.3021 146.066 96.389 146.62C97.476 147.174 98.4669 147.654 99.2046 147.964C99.9423 148.274 100.396 148.436 100.388 148.471Z" fill="#455A64"/>
<path d="M102.312 133C102.347 133 102.286 133.655 102.221 134.707C102.155 135.759 102.094 137.213 102.125 138.819C102.155 140.426 102.273 141.875 102.378 142.931C102.46 143.496 102.514 144.064 102.539 144.634C102.482 144.494 102.444 144.347 102.426 144.197C102.365 143.909 102.295 143.486 102.221 142.962C102.032 141.594 101.924 140.217 101.898 138.837C101.872 137.458 101.926 136.08 102.059 134.707C102.116 134.179 102.168 133.756 102.216 133.463C102.229 133.306 102.262 133.15 102.312 133Z" fill="#455A64"/>
<path d="M104.299 133.646C104.299 133.646 104.22 133.716 104.111 133.847C103.958 134.03 103.861 134.253 103.831 134.489C103.807 134.659 103.819 134.832 103.866 134.997C103.914 135.161 103.995 135.314 104.106 135.445C104.259 135.58 104.446 135.672 104.646 135.71C104.847 135.748 105.054 135.73 105.245 135.659C105.437 135.588 105.605 135.467 105.733 135.308C105.861 135.148 105.943 134.957 105.97 134.755C105.966 134.582 105.925 134.412 105.85 134.256C105.774 134.101 105.667 133.963 105.534 133.852C105.358 133.691 105.14 133.585 104.905 133.546C104.735 133.52 104.639 133.546 104.635 133.515C104.63 133.485 104.726 133.459 104.914 133.459C105.179 133.467 105.434 133.562 105.639 133.729C105.798 133.85 105.928 134.006 106.018 134.184C106.108 134.363 106.156 134.56 106.158 134.76C106.138 135.008 106.047 135.246 105.897 135.445C105.746 135.643 105.542 135.795 105.308 135.882C105.074 135.968 104.82 135.986 104.577 135.934C104.333 135.881 104.109 135.76 103.932 135.585C103.805 135.43 103.714 135.249 103.667 135.055C103.619 134.861 103.616 134.658 103.657 134.463C103.703 134.2 103.835 133.961 104.032 133.782C104.189 133.664 104.294 133.638 104.299 133.646Z" fill="#455A64"/>
<path d="M109.721 126.457C109.624 126.615 109.509 126.761 109.38 126.894C109.052 127.283 108.703 127.653 108.332 128.002C107.785 128.524 107.201 129.007 106.586 129.447C105.83 129.984 105.034 130.464 104.207 130.883C103.376 131.292 102.515 131.638 101.632 131.918C100.908 132.143 100.17 132.318 99.4231 132.442C98.9221 132.529 98.4163 132.586 97.9084 132.612C97.7225 132.63 97.5354 132.63 97.3496 132.612C97.3496 132.568 98.1397 132.525 99.3969 132.28C100.135 132.134 100.864 131.944 101.579 131.713C104.035 130.91 106.298 129.607 108.223 127.885C109.175 127.038 109.686 126.431 109.721 126.457Z" fill="#263238"/>
<path d="M117.687 131.302C117.687 131.368 116.901 131.368 115.976 131.604C115.05 131.839 114.352 132.188 114.317 132.132C115.286 131.419 116.498 131.121 117.687 131.302Z" fill="#263238"/>
<g opacity="0.3">
<path d="M99.3662 132.394C103.161 131.698 106.599 129.712 109.096 126.771C109.323 127.462 109.354 128.203 109.186 128.91C109.017 129.618 108.655 130.265 108.14 130.779C109.249 131.302 110.55 130.953 111.763 130.779C112.977 130.604 114.461 130.779 115.042 131.857C109.612 132.359 104.156 132.515 98.707 132.324" fill="black"/>
</g>
<path d="M88.527 123.838C87.98 123.32 87.3422 122.907 86.6456 122.62C85.8852 122.325 85.073 122.187 84.2578 122.214C83.2616 122.25 82.2866 122.513 81.4073 122.982C79.5041 123.969 78.3517 125.654 77.5136 126.732C77.189 127.185 76.8972 127.66 76.6406 128.155C76.5558 128.341 76.455 128.519 76.3394 128.688C76.3942 128.49 76.4688 128.298 76.562 128.116C76.7861 127.601 77.0549 127.108 77.3652 126.64C77.7711 126.055 78.295 125.401 78.8974 124.685C79.5728 123.909 80.3833 123.263 81.2895 122.777C82.2008 122.293 83.2129 122.028 84.2447 122.005C85.0861 121.988 85.9217 122.147 86.698 122.472C87.22 122.685 87.6992 122.991 88.1123 123.375C88.227 123.476 88.3322 123.587 88.4266 123.707C88.5008 123.79 88.5357 123.834 88.527 123.838Z" fill="#263238"/>
<path d="M99.9556 81.967L93.8618 83.2635L96.9087 94.6698L107.699 96.9877L115.103 91.7363L116.12 85.4461L109.773 83.0452L99.9556 81.967Z" fill="#FFBE9D"/>
<path d="M95.6645 82.7964C95.6645 82.7964 99.7896 94.7745 107.411 93.6657C115.033 92.557 114.396 84.7956 114.396 84.7956C114.396 84.7956 122.349 87.2227 124.807 89.8025C127.264 92.3824 125.815 97.9916 125.815 97.9916L123.755 108.128L119.267 127.544C119.267 127.544 120.983 132.843 116.596 134.153L115.212 131.97L88.9029 132.712C88.9029 132.712 83.2761 139.199 81.5213 136.964C79.7665 134.729 78.0815 130.364 78.0815 130.364L90.1688 84.2325L95.6645 82.7964Z" fill="#455A64"/>
<path d="M122.729 88.2703C122.943 88.3925 141.407 101.802 141.407 101.802C141.407 101.802 139.958 112.838 148.828 111.083C148.828 111.083 145.249 120.311 140.403 118.373C139.024 117.823 122.004 107.054 122.004 107.054L118.394 99.3666L122.729 88.2703Z" fill="#455A64"/>
<path d="M95.6641 83.3856C95.6641 83.3856 95.2276 83.3856 94.5423 83.4642C90.9279 83.8134 77.5879 86.5766 76.3525 95.9923C75.7065 100.916 75.5231 115.317 74.8247 121.354C74.8247 121.354 75.9378 129.744 76.3525 131.298C77.0902 134.066 90.4565 129.63 90.4565 129.63L90.4827 103.003L95.2582 83.3987" fill="#455A64"/>
<path d="M87.222 107.578C87.234 107.648 87.234 107.721 87.222 107.791C87.2254 107.999 87.2399 108.206 87.2657 108.411C87.3605 109.16 87.5497 109.893 87.8288 110.594C88.1692 111.493 88.7018 112.515 89.2082 113.684C89.4864 114.298 89.7198 114.931 89.9066 115.579C90.0937 116.278 90.215 116.992 90.2689 117.713C90.3468 119.102 90.3103 120.495 90.1598 121.878C90.0507 123.153 89.9459 124.301 89.7887 125.257C89.6697 126.012 89.4931 126.758 89.2605 127.487C89.1732 127.745 89.099 127.924 89.0423 128.072C89.02 128.142 88.9877 128.208 88.9463 128.269C88.9463 128.269 89.0292 127.98 89.1776 127.461C89.3729 126.728 89.5187 125.983 89.6141 125.23C89.7538 124.279 89.8411 123.135 89.9415 121.865C90.0752 120.491 90.1044 119.109 90.0288 117.731C89.9774 117.023 89.8605 116.322 89.6796 115.636C89.4978 114.998 89.2717 114.374 89.003 113.767C88.4966 112.602 87.9903 111.563 87.6629 110.651C87.3915 109.93 87.2239 109.175 87.1653 108.407C87.1474 108.199 87.1474 107.99 87.1653 107.783C87.1781 107.713 87.197 107.644 87.222 107.578Z" fill="#263238"/>
<path d="M87.8374 104.216C87.8767 104.216 87.9073 104.893 88.0601 105.963C88.2581 107.37 88.5839 108.757 89.0335 110.105C89.1688 110.502 89.3085 110.882 89.47 111.249C89.5017 111.334 89.5382 111.417 89.5792 111.498L89.7363 111.738C89.8376 111.897 89.9309 112.062 90.0157 112.231C90.3281 112.811 90.4972 113.458 90.5089 114.117C90.5114 114.566 90.4238 115.011 90.2514 115.426C90.1911 115.582 90.1104 115.729 90.0113 115.863C90.2319 115.322 90.346 114.744 90.3474 114.16C90.3157 113.531 90.1394 112.917 89.8323 112.366C89.7494 112.209 89.6534 112.052 89.553 111.895L89.3958 111.655C89.343 111.565 89.2991 111.47 89.2649 111.371C89.1121 111.004 88.9724 110.616 88.8283 110.219C88.3701 108.857 88.0627 107.448 87.9117 106.019C87.8505 105.474 87.8331 105.024 87.8287 104.71C87.8124 104.545 87.8154 104.38 87.8374 104.216Z" fill="#263238"/>
<path d="M88.3703 100.218C88.3354 100.218 88.1346 99.6722 87.7417 98.8122C87.2277 97.6888 86.6095 96.6161 85.8952 95.6082C85.1751 94.6059 84.3641 93.6722 83.4725 92.8188C82.7872 92.1641 82.3245 91.793 82.3507 91.7625C82.4767 91.8222 82.5941 91.8985 82.6999 91.9894C83.003 92.2113 83.2944 92.4488 83.5729 92.701C85.4489 94.3635 86.9222 96.4309 87.8814 98.7468C88.0603 99.1833 88.1913 99.5543 88.2655 99.8119C88.3172 99.9423 88.3524 100.079 88.3703 100.218Z" fill="#263238"/>
<path d="M126.204 92.3954C126.213 92.7496 126.183 93.1038 126.116 93.4518C126.038 94.1022 125.924 94.997 125.824 95.9879C125.723 96.9788 125.64 97.8781 125.584 98.5328C125.577 98.8871 125.533 99.2397 125.453 99.5849C125.403 99.2335 125.393 98.8777 125.422 98.5241C125.422 97.865 125.492 96.9614 125.597 95.9661C125.702 94.9708 125.837 94.0716 125.955 93.4299C125.999 93.0768 126.082 92.7298 126.204 92.3954Z" fill="#263238"/>
<path d="M130.001 103.605C130.001 103.645 129.425 103.701 128.53 103.954C127.365 104.278 126.304 104.899 125.453 105.757C125 106.242 124.606 106.778 124.278 107.355C124.022 107.834 123.797 108.33 123.606 108.839L123.392 109.433C123.34 109.594 123.296 109.747 123.253 109.869C123.222 110.003 123.173 110.132 123.109 110.253C123.106 110.116 123.127 109.978 123.17 109.847L123.27 109.38L123.453 108.769C123.627 108.243 123.841 107.73 124.095 107.237C124.425 106.651 124.827 106.108 125.291 105.622C126.165 104.733 127.273 104.11 128.487 103.824C128.693 103.767 128.903 103.724 129.115 103.697C129.272 103.667 129.431 103.646 129.591 103.636C129.725 103.604 129.864 103.594 130.001 103.605Z" fill="#263238"/>
<path d="M142.228 115.753C142.113 115.602 142.015 115.438 141.936 115.265C141.844 115.107 141.739 114.907 141.63 114.667C141.521 114.426 141.39 114.165 141.276 113.855C140.989 113.138 140.754 112.401 140.574 111.65C140.355 110.727 140.209 109.789 140.137 108.843C140.078 107.899 140.094 106.952 140.185 106.01C140.265 105.242 140.399 104.481 140.587 103.732C140.657 103.409 140.757 103.125 140.831 102.859C140.891 102.643 140.964 102.432 141.049 102.226C141.107 102.044 141.183 101.868 141.276 101.702C141.32 101.702 141.028 102.475 140.744 103.749C140.581 104.495 140.464 105.25 140.395 106.01C140.317 106.943 140.305 107.879 140.36 108.813C140.43 109.745 140.567 110.672 140.77 111.585C140.94 112.325 141.156 113.054 141.416 113.767C141.879 115.02 142.267 115.736 142.228 115.753Z" fill="#263238"/>
<path d="M137.431 112.475C137.352 112.328 137.293 112.171 137.256 112.008C137.134 111.579 137.044 111.141 136.985 110.699C136.798 109.208 136.938 107.695 137.396 106.264C137.841 104.826 138.603 103.508 139.626 102.405C139.934 102.049 140.361 101.819 140.827 101.759C140.955 101.755 141.081 101.781 141.198 101.833C141.272 101.872 141.311 101.898 141.307 101.907C141.154 101.858 140.992 101.837 140.831 101.846C140.404 101.94 140.021 102.175 139.744 102.514C138.777 103.624 138.052 104.923 137.614 106.329C137.169 107.738 137.009 109.222 137.143 110.694C137.256 111.786 137.47 112.462 137.431 112.475Z" fill="#263238"/>
<path d="M107.411 110.301C107.397 110.479 107.36 110.653 107.302 110.821C107.256 111.022 107.197 111.22 107.127 111.415C107.043 111.675 106.945 111.932 106.835 112.183C106.559 112.842 106.226 113.476 105.839 114.077C104.889 115.559 103.645 116.83 102.186 117.814C101.593 118.215 100.966 118.565 100.313 118.857C100.064 118.973 99.8094 119.075 99.5492 119.163C99.3581 119.242 99.1611 119.306 98.9599 119.355C98.7928 119.413 98.6202 119.454 98.4448 119.477C98.4448 119.433 99.1607 119.237 100.243 118.713C100.878 118.404 101.488 118.047 102.068 117.644C102.771 117.144 103.431 116.586 104.041 115.976C104.637 115.353 105.179 114.68 105.66 113.964C106.05 113.376 106.393 112.759 106.686 112.117C107.188 111.022 107.367 110.288 107.411 110.301Z" fill="#263238"/>
<g opacity="0.3">
<path d="M92.2945 114.623L89.7802 105.456C89.6579 105.02 89.4528 104.483 88.9944 104.4C88.7789 104.392 88.5682 104.465 88.4029 104.603C88.2377 104.742 88.1296 104.937 88.0996 105.151C88.0384 105.595 88.0384 106.046 88.0996 106.491C88.296 108.486 88.4531 109.839 89.3829 111.384C91.1945 114.396 90.0028 115.858 90.0028 115.858C90.1468 119.525 89.8369 124.528 88.6932 128.295L89.7714 132.839C90.7929 129.46 93.1283 126.645 93.5211 123.135C93.8223 120.258 93.0759 117.408 92.2945 114.623Z" fill="black"/>
</g>
<g opacity="0.3">
<path d="M123.763 108.189C126.753 109.743 129.412 111.89 132.323 113.554C131.184 111.174 129.268 108.822 126.963 107.56C126.361 107.172 125.652 106.984 124.937 107.023C124.23 107.124 123.724 107.521 123.833 108.224" fill="black"/>
</g>
<g opacity="0.3">
<path d="M140.897 101.61C139.875 101.584 139.107 102.514 138.605 103.404C137.193 105.938 136.616 108.852 136.955 111.733C137.016 112.248 137.208 112.868 137.719 112.969C137.907 112.989 138.097 112.948 138.261 112.851C138.424 112.754 138.551 112.607 138.622 112.432C138.763 112.081 138.821 111.703 138.793 111.327C138.793 109.581 138.67 107.813 138.924 106.089C139.177 104.365 139.827 102.619 141.106 101.436" fill="black"/>
</g>
<path d="M94.7261 104.889H94.8308L95.132 104.867L96.315 104.806L100.785 104.6L116.618 103.928H116.722V104.029C116.853 109.354 117.006 115.483 117.159 121.97V122.62V122.733H117.085C110.562 122.809 104.051 123.296 97.5896 124.191H97.5067L97.4849 124.109C96.2325 119.521 95.4528 114.817 95.1582 110.07C95.0535 108.35 95.036 107.014 95.036 106.08C95.036 105.644 95.036 105.268 95.036 105.028V104.762C95.036 104.701 95.036 104.67 95.036 104.67C95.0398 104.701 95.0398 104.732 95.036 104.762V105.033C95.036 105.277 95.036 105.631 95.036 106.08C95.036 107.001 95.0928 108.35 95.2106 110.061C95.5453 114.796 96.3495 119.485 97.6115 124.06L97.5023 123.986C103.991 123.065 110.532 122.565 117.085 122.489L116.971 122.607V121.956C116.818 115.47 116.679 109.341 116.535 104.016L116.639 104.116L100.802 104.705L96.3281 104.854L95.1451 104.889H94.7392H94.7261Z" fill="white"/>
<path d="M100.497 118.119C100.435 118.119 99.8898 115.182 99.2787 111.532C98.6676 107.883 98.2223 104.919 98.2834 104.906C98.3446 104.893 98.8902 107.844 99.5013 111.497C100.112 115.151 100.54 118.111 100.497 118.119Z" fill="white"/>
<path d="M101.134 123.751C100.9 122.974 100.737 122.178 100.65 121.372C100.489 120.575 100.401 119.766 100.388 118.953C100.623 119.731 100.785 120.529 100.872 121.337C101.038 122.131 101.126 122.939 101.134 123.751Z" fill="white"/>
<path d="M104.897 115.199C104.834 115.071 104.793 114.934 104.774 114.793C104.709 114.531 104.626 114.143 104.534 113.667C104.351 112.711 104.146 111.384 103.997 109.909C103.849 108.433 103.792 107.089 103.779 106.12C103.779 105.631 103.779 105.247 103.779 104.967C103.775 104.821 103.788 104.674 103.818 104.531C103.889 105.05 103.925 105.574 103.927 106.098C103.98 107.067 104.063 108.403 104.211 109.874C104.36 111.345 104.539 112.667 104.678 113.628C104.782 114.147 104.855 114.671 104.897 115.199Z" fill="white"/>
<path d="M104.399 123.166C104.161 122.15 103.996 121.119 103.906 120.079C103.737 119.05 103.647 118.01 103.635 116.967C103.873 117.983 104.038 119.014 104.129 120.053C104.297 121.082 104.388 122.123 104.399 123.166Z" fill="white"/>
<path d="M109.332 122.812C109.286 122.574 109.257 122.334 109.244 122.092L109.074 120.127C108.93 118.473 108.716 116.199 108.428 113.663C108.14 111.126 107.826 108.861 107.59 107.215C107.476 106.421 107.38 105.762 107.311 105.264C107.266 105.026 107.24 104.785 107.232 104.544C107.308 104.774 107.364 105.011 107.398 105.251C107.489 105.687 107.607 106.368 107.747 107.189C108.026 108.835 108.363 111.118 108.655 113.636C108.947 116.155 109.131 118.438 109.236 120.119C109.284 120.948 109.318 121.62 109.332 122.087C109.354 122.328 109.354 122.571 109.332 122.812Z" fill="white"/>
<path d="M113.531 123.048C113.5 122.805 113.488 122.559 113.496 122.314C113.496 121.804 113.496 121.127 113.496 120.315C113.496 118.63 113.435 116.299 113.317 113.732C113.199 111.166 113.016 108.839 112.881 107.158C112.811 106.351 112.754 105.679 112.711 105.172C112.68 104.929 112.667 104.684 112.671 104.439C112.735 104.675 112.778 104.916 112.798 105.159C112.868 105.626 112.951 106.307 113.042 107.145C113.226 108.822 113.426 111.148 113.553 113.719C113.68 116.29 113.693 118.626 113.667 120.315C113.667 121.158 113.636 121.843 113.614 122.314C113.605 122.561 113.577 122.806 113.531 123.048Z" fill="white"/>
<g opacity="0.3">
<path d="M98.79 119.508C99.4738 119.943 100.283 120.14 101.09 120.066C101.893 119.993 102.677 119.788 103.413 119.46C104.415 119.086 105.318 118.489 106.054 117.714C106.769 116.825 107.222 115.755 107.363 114.623C107.508 113.493 107.546 112.351 107.477 111.214C107.481 111.165 107.469 111.115 107.442 111.074C107.426 111.058 107.407 111.045 107.386 111.036C107.365 111.027 107.342 111.022 107.32 111.022C107.297 111.022 107.274 111.027 107.253 111.036C107.232 111.045 107.213 111.058 107.197 111.074C107.132 111.141 107.086 111.224 107.062 111.314C106.394 113.216 105.281 114.93 103.816 116.315C102.352 117.7 100.578 118.715 98.6416 119.276" fill="black"/>
</g>
<path d="M96.0879 156.07L93.4208 151.068L87.423 122.995C87.423 122.995 81.9054 119.826 77.3831 126.771C77.2041 127.051 83.5991 147.157 85.3845 152.749L85.6333 158.1C85.6333 158.1 85.319 164.434 85.6333 164.989C85.9144 165.377 86.2984 165.679 86.7421 165.862C86.7421 165.862 86.5063 167.446 88.3266 167.608C88.3266 167.608 88.4838 169.354 89.8282 169.114C90.1937 169.069 90.5456 168.947 90.8602 168.756C91.1749 168.565 91.4451 168.309 91.6529 168.005C91.6529 168.005 91.6529 170.218 92.8402 169.982C94.0276 169.747 94.2196 168.795 94.4379 168.481C94.6561 168.166 94.9093 164.914 94.9093 164.914L94.8875 159.554L97.9781 162.059C98.8511 162.496 100.182 163.055 100.925 162.387L96.0879 156.07Z" fill="#FFBE9D"/>
<path d="M94.8918 159.279C95.095 160.228 95.1539 161.202 95.0664 162.169C95.0315 162.911 95.0009 163.587 94.9704 164.207C94.9801 164.49 94.9537 164.773 94.8918 165.05C94.7701 164.091 94.7525 163.122 94.8394 162.16C94.918 160.571 94.8219 159.288 94.8918 159.279Z" fill="#EB996E"/>
<path d="M91.487 163.016C91.6616 164.778 91.685 166.553 91.5569 168.319C91.3823 166.557 91.3589 164.782 91.487 163.016Z" fill="#EB996E"/>
<path d="M88.632 163.989C88.8332 165.221 88.7113 166.485 88.2784 167.656C88.2173 167.656 88.3744 166.831 88.4661 165.822C88.4878 165.209 88.5431 164.597 88.632 163.989Z" fill="#EB996E"/>
<path d="M86.7943 163.369C86.8677 164.173 86.7877 164.983 86.5586 165.757C86.4818 165.359 86.4818 164.95 86.5586 164.552C86.5643 164.147 86.6442 163.746 86.7943 163.369Z" fill="#EB996E"/>
<path d="M92.7876 53.9949L88.7716 46.9145C91.2541 42.8839 92.1393 38.0705 91.2532 33.4205C90.367 28.7704 87.7737 24.6199 83.9828 21.7848C80.1919 18.9496 75.4777 17.635 70.7667 18.0991C66.0558 18.5632 61.6888 20.7726 58.5241 24.293C55.3594 27.8134 53.6258 32.3902 53.6642 37.1238C53.7026 41.8574 55.5101 46.4055 58.7314 49.8742C61.9528 53.3428 66.355 55.4811 71.0729 55.8688C75.7908 56.2565 80.483 54.8656 84.2274 51.9694L92.7876 53.9949Z" fill="white"/>
<path d="M92.7879 53.9949L84.2103 52.0306C84.2029 52.0296 84.1958 52.027 84.1895 52.0231C84.1832 52.0191 84.1778 52.0139 84.1736 52.0077C84.1695 52.0015 84.1667 51.9945 84.1655 51.9871C84.1643 51.9798 84.1647 51.9723 84.1666 51.9651C84.1666 51.9651 84.1666 51.9651 84.1666 51.9433L84.2452 52.0218C83.0446 52.9558 81.7376 53.7441 80.3514 54.3703C78.7067 55.1097 76.9649 55.6109 75.1787 55.8588C74.1869 55.9971 73.1848 56.0467 72.1842 56.0073C71.6647 55.9811 71.1409 55.968 70.6127 55.9243L69.0107 55.6799C64.2437 54.7449 60.012 52.0289 57.1766 48.0844C55.6011 45.9015 54.5102 43.4071 53.9769 40.7684C53.4298 37.978 53.5059 35.1012 54.1996 32.3435C54.9154 29.4623 56.307 26.7928 58.2592 24.556L59.0318 23.683C59.2894 23.3949 59.5906 23.1592 59.8656 22.8973C60.1406 22.6354 60.4156 22.3691 60.7386 22.1508L61.6466 21.4698C61.9458 21.2398 62.2609 21.0312 62.5895 20.8456L63.5498 20.2651L64.5538 19.7762C64.8833 19.6095 65.2231 19.4637 65.5709 19.3396C68.2653 18.2713 71.1657 17.8237 74.0568 18.0301C76.7916 18.2148 79.4521 19.0002 81.8487 20.3305C86.1502 22.7371 89.3619 26.7052 90.8192 31.4138C91.4073 33.4126 91.6855 35.4899 91.6442 37.573C91.5915 39.3804 91.2799 41.1709 90.7188 42.8899C90.2459 44.3186 89.6071 45.687 88.8155 46.9669V46.9102L92.7835 54.0167L88.7108 46.9408C88.7066 46.9327 88.7044 46.9237 88.7044 46.9146C88.7044 46.9054 88.7066 46.8965 88.7108 46.8884C89.4872 45.6119 90.1128 44.2496 90.5747 42.8287C91.1264 41.1204 91.4292 39.3415 91.4739 37.5469C91.5069 35.4793 91.2258 33.4187 90.6402 31.4356C89.1766 26.7849 85.9867 22.8717 81.7265 20.5008C79.3555 19.1896 76.7252 18.4162 74.0219 18.2352C71.1624 18.0369 68.295 18.4845 65.632 19.5448C65.2887 19.6696 64.9534 19.8154 64.628 19.9813L63.6371 20.4615L62.6855 21.0377C62.3619 21.2214 62.0512 21.4271 61.7557 21.6532L60.8565 22.3254C60.5509 22.5437 60.2934 22.8231 60.0096 23.0675C59.7259 23.312 59.4378 23.5564 59.189 23.8401L58.4251 24.6826C56.4943 26.8926 55.1176 29.5307 54.4091 32.3785C53.7227 35.1029 53.6452 37.9451 54.1821 40.7029C54.708 43.3122 55.7839 45.7795 57.3381 47.9404C60.1396 51.8478 64.3216 54.5443 69.0368 55.4834L70.6214 55.7279C71.1452 55.7715 71.6647 55.7846 72.1754 55.8152C73.17 55.8575 74.1663 55.8107 75.1525 55.6755C76.9312 55.4406 78.6672 54.9526 80.3078 54.2263C81.6876 53.6118 82.9902 52.8367 84.1884 51.9171C84.1937 51.9114 84.2002 51.9069 84.2073 51.9038C84.2144 51.9007 84.2221 51.8991 84.2299 51.8991C84.2377 51.8991 84.2454 51.9007 84.2525 51.9038C84.2596 51.9069 84.2661 51.9114 84.2714 51.9171C84.278 51.9275 84.2815 51.9396 84.2815 51.952C84.2815 51.9644 84.278 51.9765 84.2714 51.9869L84.2408 51.8952L92.7879 53.9949Z" fill="#263238"/>
<path d="M67.0812 33.3955C66.7849 33.2558 66.4651 33.1729 66.1383 33.1511C65.6593 33.0742 65.1686 33.1223 64.7137 33.2905C64.2587 33.4587 63.8548 33.7415 63.541 34.1114C65.5883 35.2988 68.3777 36.8746 70.3725 38.0139L72.8913 36.5734C71.0753 35.5738 68.7967 34.3166 67.0812 33.3955Z" fill="#E7BC20"/>
<g opacity="0.3">
<path d="M67.0812 33.3955C66.7849 33.2558 66.4651 33.1729 66.1383 33.1511C65.6593 33.0742 65.1686 33.1223 64.7137 33.2905C64.2587 33.4587 63.8548 33.7415 63.541 34.1114C65.5883 35.2988 68.3777 36.8746 70.3725 38.0139L72.8913 36.5734C71.0753 35.5738 68.7967 34.3166 67.0812 33.3955Z" fill="black"/>
</g>
<path d="M74.7945 40.6679L74.7029 40.5893C74.0743 40.227 73.3933 39.5373 72.7735 39.5504C72.5334 39.5504 72.2715 39.7643 71.6472 40.1135C70.6083 40.7028 68.8579 41.7286 67.8102 42.2961C66.9372 42.7894 65.8284 43.1691 64.8114 42.8374C64.2924 42.6467 63.8151 42.3577 63.4058 41.9862L74.7902 35.386C74.7334 35.2158 74.6723 35.0542 74.6156 34.8884C74.3863 34.2205 74.38 33.4962 74.5977 32.8244C74.8154 32.1527 75.2453 31.5697 75.8227 31.1632C76.4002 30.7568 77.0939 30.5487 77.7998 30.5704C78.5056 30.5921 79.1853 30.8423 79.7367 31.2834C80.2881 31.7245 80.6814 32.3327 80.8575 33.0166C81.0336 33.7004 80.9829 34.423 80.7131 35.0755C80.4433 35.7281 79.9689 36.2755 79.3613 36.6353C78.7537 36.9952 78.0458 37.148 77.3438 37.071C77.0816 37.054 76.8195 37.1067 76.5843 37.2237C76.1478 37.4333 75.7462 37.6996 75.2267 37.9964C76.0997 38.3893 76.6978 39.0178 77.7236 38.9218C79.1379 38.7909 80.3907 39.8167 80.8229 41.183C81.0264 41.8358 81.0187 42.5363 80.8008 43.1845C80.5829 43.8328 80.166 44.3957 79.6094 44.793C79.0492 45.1951 78.376 45.4094 77.6865 45.4049C76.997 45.4005 76.3266 45.1775 75.7718 44.7682C75.2169 44.3588 74.8061 43.7841 74.5983 43.1266C74.3906 42.4691 74.3966 41.7626 74.6156 41.1088C74.668 40.9822 74.7422 40.8338 74.7945 40.6679ZM77.7018 35.4297C77.9105 35.432 78.1175 35.3925 78.3107 35.3133C78.5038 35.2341 78.679 35.1169 78.826 34.9687C78.973 34.8205 79.0887 34.6443 79.1663 34.4506C79.2439 34.2568 79.2817 34.0494 79.2776 33.8407C79.2708 33.4292 79.1037 33.0365 78.8119 32.7463C78.52 32.4561 78.1264 32.2912 77.7149 32.2867C77.2934 32.2913 76.8906 32.4614 76.5933 32.7602C76.2961 33.0591 76.1282 33.4629 76.1259 33.8844C76.1384 34.2947 76.3096 34.6843 76.6035 34.9709C76.8975 35.2575 77.2912 35.4188 77.7018 35.4209V35.4297ZM77.7018 43.7584C78.1135 43.7621 78.5104 43.605 78.8079 43.3204C79.1055 43.0359 79.2803 42.6464 79.2951 42.235C79.3039 42.0262 79.2705 41.8178 79.1969 41.6222C79.1233 41.4266 79.011 41.2479 78.8667 41.0967C78.7225 40.9455 78.5492 40.825 78.3573 40.7423C78.1654 40.6596 77.9588 40.6165 77.7498 40.6155C77.3379 40.6105 76.9402 40.7657 76.6405 41.0483C76.3408 41.3309 76.1626 41.7188 76.1434 42.1302C76.1397 42.5474 76.2984 42.9497 76.586 43.252C76.8735 43.5542 77.2674 43.7327 77.6843 43.7497L77.7018 43.7584Z" fill="#E7BC20"/>
<path d="M73.4671 37.9616C73.4278 37.9616 73.4453 37.6691 73.1223 37.4377C73.0335 37.3762 72.931 37.3372 72.8237 37.3243C72.7164 37.3114 72.6076 37.3248 72.5068 37.3635C72.3866 37.4114 72.2836 37.4941 72.2111 37.6011C72.1385 37.7081 72.0997 37.8344 72.0997 37.9637C72.0997 38.093 72.1385 38.2193 72.2111 38.3263C72.2836 38.4333 72.3866 38.5161 72.5068 38.5639C72.6076 38.6026 72.7164 38.6161 72.8237 38.6031C72.931 38.5902 73.0335 38.5513 73.1223 38.4897C73.4453 38.2584 73.4278 37.9528 73.4671 37.9616C73.5064 37.9703 73.502 38.0314 73.4671 38.1536C73.4412 38.3353 73.3476 38.5006 73.2052 38.6163C73.0975 38.7057 72.9687 38.7658 72.8312 38.791C72.6936 38.8163 72.5518 38.8057 72.4195 38.7604C72.2536 38.7033 72.1096 38.5959 72.0077 38.453C71.9058 38.3102 71.8511 38.1392 71.8511 37.9637C71.8511 37.7883 71.9058 37.6172 72.0077 37.4744C72.1096 37.3316 72.2536 37.2242 72.4195 37.1671C72.5518 37.1218 72.6936 37.1112 72.8312 37.1364C72.9687 37.1617 73.0975 37.2218 73.2052 37.3111C73.3474 37.4253 73.441 37.5891 73.4671 37.7695C73.502 37.8917 73.4802 37.9616 73.4671 37.9616Z" fill="#263238"/>
<path d="M76.2523 37.4071C76.1784 37.4627 76.1011 37.5138 76.0209 37.5599L75.3705 37.9528L73.2185 39.2187L71.0359 40.4584L70.3724 40.8251C70.2932 40.8743 70.21 40.9167 70.1235 40.9516C70.1966 40.8935 70.2739 40.8409 70.3549 40.7945L71.0053 40.4016L73.1573 39.1401L75.3399 37.9004L76.0035 37.5293C76.0831 37.4823 76.1663 37.4414 76.2523 37.4071Z" fill="#263238"/>
<path d="M74.3575 35.661C74.3244 35.6883 74.2894 35.7131 74.2527 35.7352L73.9384 35.9317L72.7773 36.6519C71.7995 37.2456 70.4419 38.0575 68.9184 38.9174L65.029 41.1262L63.8286 41.7636L63.5056 41.9382L63.3921 41.9949C63.3921 41.9949 63.427 41.9687 63.4969 41.9251L63.8112 41.733L64.981 41.0477L68.8617 38.8171C70.3808 37.944 71.7427 37.1539 72.7336 36.5777L73.9078 35.9011L74.2309 35.7178L74.3575 35.661Z" fill="#263238"/>
<path d="M146.471 59.4296L147.3 60.9443L148.815 61.7737L147.3 62.6031L146.471 64.1178L145.641 62.6031L144.126 61.7737L145.641 60.9443L146.471 59.4296Z" fill="#E7BC20"/>
<path d="M152.006 38.6861L152.866 38.6293L153.56 38.1143L153.617 38.9786L154.132 39.6726L153.267 39.7294L152.573 40.2401L152.517 39.3802L152.006 38.6861Z" fill="#E7BC20"/>
<path d="M291.631 107.569L292.491 107.512L293.185 106.997L293.242 107.861L293.757 108.555L292.893 108.612L292.199 109.123L292.142 108.263L291.631 107.569Z" fill="#E7BC20"/>
<path d="M193.279 64.4714L194.139 64.4147L194.837 63.9039L194.894 64.7639L195.405 65.4579L194.545 65.5147L193.846 66.0254L193.794 65.1655L193.279 64.4714Z" fill="#E7BC20"/>
<path d="M198.526 27.5854L199.386 27.5287L200.08 27.0179L200.137 27.8779L200.647 28.572L199.787 28.6287L199.093 29.1438L199.037 28.2795L198.526 27.5854Z" fill="#E7BC20"/>
<path d="M172.095 50.4766L173.404 49.7215L174.098 48.3813L174.854 49.6909L176.198 50.3893L174.888 51.1402L174.19 52.4846L173.435 51.1751L172.095 50.4766Z" fill="#E7BC20"/>
<path d="M282.119 124.908L283.429 124.152L284.123 122.812L284.878 124.122L286.218 124.816L284.909 125.571L284.214 126.911L283.459 125.602L282.119 124.908Z" fill="#E7BC20"/>
<path d="M275.541 100.964L276.85 100.209L277.549 98.869L278.304 100.179L279.644 100.873L278.334 101.628L277.636 102.972L276.885 101.658L275.541 100.964Z" fill="#E7BC20"/>
</svg>
